<?xml version="1.0" encoding="utf-8"?>
<!DOCTYPE svg PUBLIC "-//W3C//DTD SVG 1.1//EN" "http://www.w3.org/Graphics/SVG/1.1/DTD/svg11.dtd">
<svg version="1.1" id="Layer_1" xmlns="http://www.w3.org/2000/svg" xmlns:xlink="http://www.w3.org/1999/xlink" x="0px" y="0px"
	 viewBox="0 0 1712 1255" width="100%" height="100%" enable-background="new 0 0 1712 1255" xml:space="preserve">
<path fill="#BFBEA9" d="M978.8,286c0,0-11.9,40.8-17.8,49.5c-5.9,8.7-11.5,49.5-3.6,56.3c7.9,6.7,1.5,22.6,1.5,22.6l242.3,148.1
	c0,0,5.5-4.4,9.9-2l45.5-73.3c0,0,2.4-10.3,18.6-13.9l136.2-30.9c0,0,0.4-11.5,7.9-12.3l-82.7-160l-154,21c0,0-14.3-0.8-18.2-9.1
	c-4-8.3-6.7-22.2-6.7-22.2L978.8,286z"/>
<path fill="#BFBEA9" d="M1429.7,437.8l49.5-12.7l-55.8-108.1l-48.3,25l42.4,87.9C1417.4,429.8,1427.3,430.2,1429.7,437.8z"/>
<path fill="#BFBEA9" d="M1330.3,596.2l-84.7,107.4l32.1,30.5l-26.1,34.5l11.9,9.5l-26.9,36l143.3,114.5l57-69.7l13.1,5.5
	l116.4-148.6c0,0-11.1-20.2-15-28.5c-4-8.3-60.2-112.9-60.2-112.9L1330.3,596.2z"/>
<polygon fill="#BFBEA9" points="1440.8,977.7 1497,905.2 1530.6,933.3 1474,1002.7 "/>
<polygon fill="#BFBEA9" points="1327.5,947.2 1351.7,964.2 1376.6,931.4 1352.9,913.1 "/>
<polygon fill="#BFBEA9" points="1012.8,1041.3 1022.6,1005.2 990.6,990.4 1012.6,922.2 973.8,908.8 961.1,941.3 932.8,932.3 
	923.6,959.2 931.8,964.2 922.3,989.3 954.2,1001.2 944.7,1028.1 958.2,1034.2 978.8,1029.7 "/>
<polygon fill="#BFBEA9" points="822.3,1028.9 845.8,1004.6 879.5,1036.3 855.5,1061.9 "/>
<polygon fill="#BFBEA9" points="764.2,830.7 779,836.7 788.7,808 778.7,802.6 "/>
<polygon fill="#BFBEA9" points="954.2,622.2 930.2,660.5 941.8,665.3 964.1,629.9 "/>
<polygon fill="#BFBEA9" points="516,528.8 591.6,517.9 594,455.6 517.7,469.3 "/>
<path fill="#BFBEA9" d="M412.7,574.8l2.4-48.3l37.6-0.4c0,0,0.8,45.6-6.7,47.9L412.7,574.8z"/>
<path fill="#BFBEA9" d="M358.6,729.9l0.4,14.9c0,0,24.5,1.7,32.1,4.4c22.2,7.7,62.7-0.2,62.7-0.2l0.2-21.4l-30.9-0.8l0.2-14.5
	l-23.6-0.6l-0.4,14.1l-36.4,0.6L358.6,729.9z"/>
<polygon fill="#BFBEA9" points="228.2,51.5 225.3,23.5 254.8,19 256.9,48.9 "/>
<polygon fill="#BFBEA9" points="676.3,456.4 672.4,451 669.2,427.9 693.9,424.3 676.5,456.2 "/>
<polygon fill="#BFBEA9" points="984.4,263 1028.2,278.6 978.8,286 984.3,263.8 "/>
<polygon fill="#DDDDD0" points="392.5,249.8 282.9,362.6 226.2,380.7 140.7,382.7 25.9,343.6 1.7,324.6 1.7,318.7 28.2,339.4 
	141.4,377.9 225.4,376 280.3,358.4 390.1,245.4 404.7,242.5 405.6,247.2 "/>
<polygon fill="#DDDDD0" points="386,228.1 320.5,282.7 309.8,316 270.9,347.6 222.9,363.7 146.1,354.5 35.4,317.1 1.7,290.6 
	1.7,289.1 1.7,284.4 37.7,312.8 147.1,349.9 222.4,358.9 268.6,343.3 305.7,313.2 316.4,279.9 383.9,223.6 405.7,220 406.4,224.7 
	"/>
<polygon fill="#DDDDD0" points="217.2,342.3 148,334.7 49.2,289.7 1.7,251.3 1.7,249.2 1.7,245.2 51.7,285.6 149.2,330.1 
	217.7,337.5 "/>
<polygon fill="#DDDDD0" points="220.3,316.1 158.6,308.2 62.2,265.1 1.7,216 1.7,210.1 64.7,261 159.9,303.5 220.9,311.4 "/>
<polygon fill="#DDDDD0" points="208,288 160.2,281.2 76.5,240.9 1.7,182.4 1.7,176.3 79,236.9 161.6,276.6 208.7,283.3 "/>
<polygon fill="#DDDDD0" points="158.3,249.5 85.7,216.4 63.3,200.8 59.9,190.6 1.7,147.5 1.7,145.9 3.1,142.7 63.9,187.7 
	67.3,197.8 88,212.3 160.3,245.2 "/>
<polygon fill="#DDDDD0" points="70.3,166.7 17.7,125.5 20.6,121.7 73.3,162.9 "/>
<polygon fill="#DDDDD0" points="1.7,145.5 1.7,141.5 16.8,122.6 1.7,16.3 1.7,0 4.1,0 21.8,123.9 1.7,149 "/>
<polygon fill="#DDDDD0" points="1.7,168.4 1.7,163.4 47.9,107.3 51.6,110.3 1.7,171 "/>
<polygon fill="#DDDDD0" points="1.7,192.6 1.7,187.7 56.9,119.5 60.6,122.5 1.7,195.4 "/>
<polygon fill="#DDDDD0" points="1.7,217.2 1.7,212.9 69,129.5 72.7,132.5 1.7,220.3 "/>
<polygon fill="#DDDDD0" points="1.7,244.7 1.7,240.2 71.1,150.7 74.9,153.6 1.7,247.5 "/>
<polygon fill="#DDDDD0" points="1.7,267.9 1.7,263 69.9,176 73.7,179 1.7,270.6 "/>
<polygon fill="#DDDDD0" points="1.7,291.7 1.7,287.5 51.4,228.7 55,231.7 1.7,295 "/>
<polygon fill="#DDDDD0" points="58.6,222.3 48.6,249.4 35.4,274.2 1.7,319.3 1.7,316.2 1.7,311 31.4,271.7 44.3,247.4 54.1,220.7 
	70.2,175.5 69.4,68.7 61.1,0 65.8,0 74.2,68.4 75,176.3 "/>
<polygon fill="#DDDDD0" points="1.7,346.1 1.7,336.7 66.2,230.5 70.3,233 3.8,342.7 "/>
<polygon fill="#DDDDD0" points="68.7,230.6 64.6,228.2 75.7,209.9 79.8,212.4 "/>
<polygon fill="#DDDDD0" points="76.3,209 72,207 93.8,159.9 98.1,161.9 "/>
<polygon fill="#DDDDD0" points="47.5,299.3 24.5,361.3 24.5,361.3 20.1,359.7 43.1,297.4 137.8,106.3 142,108.4 "/>
<polygon fill="#DDDDD0" points="43.9,347.3 39.6,345.2 157.9,93.7 162.2,95.7 "/>
<polygon fill="#DDDDD0" points="104.1,251.7 55.4,369 55.4,368.9 51,367.1 99.7,249.8 174.2,92.5 178.5,94.5 "/>
<polygon fill="#DDDDD0" points="119.9,258.1 73.2,371.7 73.2,371.7 68.8,369.9 115.5,256.2 196.3,88.9 200.6,91 "/>
<path fill="#DDDDD0" d="M108.8,313.5l-17,49.4l-4.5-1.5l17.1-49.7L213,85.7l4.3,2.1L108.8,313.5L108.8,313.5z M91.9,362.9
	L91.9,362.9L91.9,362.9L91.9,362.9L91.9,362.9z"/>
<path fill="#DDDDD0" d="M100.9,376.9l-4.3-2l57.7-125.6c-3.3-1.8-9.8-5.4-12.6-6.8l0,0l2.1-4.3c4.1,2,14.7,8,14.7,8l0,0l1.9,1.1
	L100.9,376.9L100.9,376.9z M100.9,377L100.9,377L100.9,377L100.9,377L100.9,377z"/>
<polygon fill="#DDDDD0" points="164.8,241.9 160.5,240 227.6,85.8 231.9,87.7 "/>
<path fill="#DDDDD0" d="M244.8,105.6L125.2,386.1l-7.3-3.1l120-281.4L314.9,0h10L244.8,105.6L244.8,105.6z M125.2,386.1L125.2,386.1
	L125.2,386.1L125.2,386.1L125.2,386.1z"/>
<polygon fill="#DDDDD0" points="354.9,283.8 353.6,278.3 208.5,218.9 193.8,210.2 72,154.3 74,150 196,206 210.6,214.6 357.7,274.8 
	359.5,282.7 "/>
<polygon fill="#DDDDD0" points="375,265.8 78.2,132.4 64.7,121 1.7,50.1 1.7,43.1 68,117.6 80.7,128.3 376.9,261.4 "/>
<polygon fill="#DDDDD0" points="211.5,240.8 188.2,236 70.8,179.6 70.8,179.6 72.8,175.3 189.7,231.5 212.4,236.2 "/>
<path fill="#DDDDD0" d="M230.1,385.1l-7.9-0.9l1.1-9.6l-19.8-81.2l14.7-143.7l7.9,0.8l-14.6,142.3l19.8,81.2L230.1,385.1
	L230.1,385.1z M230.1,385.1L230.1,385.1L230.1,385.1L230.1,385.1L230.1,385.1z"/>
<polygon fill="#DDDDD0" points="379.6,83.2 256.4,85.6 2,116.5 1.7,116.5 1.7,111.8 256.1,80.8 379.2,78.5 795.5,14.3 796.2,19 "/>
<polygon fill="#DDDDD0" points="256.1,213.1 221.4,173 210.4,171.5 77.7,106.9 77.7,106.9 79.8,102.7 211.8,166.9 223.8,168.5 
	259.7,210 "/>
<path fill="#DDDDD0" d="M95.1,135.8l-4.3-1.9l15-33.6L92.6,0h4.8l13.3,101L95.1,135.8L95.1,135.8z M95.1,135.8L95.1,135.8
	L95.1,135.8L95.1,135.8L95.1,135.8z"/>
<polygon fill="#DDDDD0" points="90.8,104.5 78.3,0 83.2,0 95.5,103.9 "/>
<polygon fill="#DDDDD0" points="59.5,107.7 45.9,0 50.8,0 64.3,107.1 "/>
<polygon fill="#DDDDD0" points="42.5,96.1 30.5,0 35.2,0 47.2,95.5 "/>
<polygon fill="#DDDDD0" points="24.7,73.9 14.8,0 19.6,0 29.4,73.3 "/>
<polygon fill="#DDDDD0" points="159.7,259.9 134,96.4 122.1,0 130,0 141.8,95.4 167.5,258.7 "/>
<polygon fill="#DDDDD0" points="107.6,143.2 103.3,141.2 122.4,99.9 107.4,0 112.1,0 127.3,100.6 "/>
<polygon fill="#DDDDD0" points="291.8,229.1 222.7,146.9 140.9,109.1 140.9,109.1 142.9,104.8 225.7,143.1 295.4,226 "/>
<polygon fill="#DDDDD0" points="325.7,243.2 230.1,125.4 179.2,94.8 179.2,94.8 181.7,90.7 233.3,121.8 329.4,240.2 "/>
<polygon fill="#DDDDD0" points="357.8,258.2 238.2,113.6 241.9,110.6 361.4,255.2 "/>
<path fill="#DDDDD0" d="M428.6,286.4c0,0-0.7-0.6-2-1.6l0,0c-1.3-1-3.2-2.4-5.5-3.9l0,0c-4.5-2.9-10.6-6.1-16.4-7.2l0,0
	c-13.8-2.7-23.8-14.5-24-14.7l0,0L246.9,99.4v0l3.6-3.1L384.4,256c0,0,0.5,0.6,1.6,1.7l0,0c1.1,1.1,2.6,2.5,4.6,4l0,0
	c3.9,3,9.3,6.3,15,7.4l0,0c13.6,2.6,26,13.7,26.2,13.7l0,0L428.6,286.4L428.6,286.4z"/>
<polygon fill="#DDDDD0" points="387.1,242.8 256.8,84.3 260.5,81.3 390.7,239.8 "/>
<polygon fill="#DDDDD0" points="391.3,266.6 359.4,82.7 305.6,21.8 309.1,18.7 363.8,80.6 396,265.8 396,265.8 "/>
<polygon fill="#DDDDD0" points="381.6,209.1 265.2,73.7 268.8,70.6 385.2,206 "/>
<polygon fill="#DDDDD0" points="376.4,175.9 274.7,60.6 278.2,57.5 380,172.7 "/>
<polygon fill="#DDDDD0" points="364.7,113.6 294.9,34.9 298.4,31.7 368.2,110.4 "/>
<polygon fill="#DDDDD0" points="375.9,77.4 306.4,0 312.8,0 379.4,74.2 "/>
<polygon fill="#DDDDD0" points="370.1,45.6 327.5,0 334.1,0 373.6,42.4 "/>
<polygon fill="#DDDDD0" points="365.4,16.3 349.8,0 356.5,0 368.8,13 "/>
<polygon fill="#DDDDD0" points="225,157.5 221.9,153.9 367.6,29.9 370.6,33.5 "/>
<polygon fill="#DDDDD0" points="214.9,219.7 211.9,216.1 374.7,79.4 377.8,83.1 "/>
<polygon fill="#DDDDD0" points="1555.3,156.5 1514.6,172.7 1134.9,201.3 867,124.9 360.6,200.3 217.8,318 214.8,314.3 358.6,195.8 
	867.3,120 1135.4,196.5 1513.5,168 1554.2,151.8 1712,137.3 1712,142.1 "/>
<polygon fill="#DDDDD0" points="1145.5,97.1 792,74.5 387.3,135.4 373.2,142.6 212.3,275.6 212.3,275.6 209.2,271.9 370.6,138.7 
	385.8,130.8 791.8,69.7 1145.4,92.3 1712,45.7 1712,50.7 "/>
<polygon fill="#DDDDD0" points="263,366.6 253.1,352.4 257,349.6 266.9,363.9 "/>
<polygon fill="#DDDDD0" points="279.8,362 208.9,277.7 212.6,274.6 283.4,359 "/>
<polygon fill="#DDDDD0" points="291.2,349.7 281.3,337.4 285,334.5 294.9,346.7 "/>
<polygon fill="#DDDDD0" points="302.2,337.7 294.3,326.6 298.2,323.9 306.1,335 "/>
<polygon fill="#DDDDD0" points="312.8,325.7 230.7,227.3 234.3,224.3 316.4,322.7 "/>
<polygon fill="#DDDDD0" points="324.1,314.9 312.1,300.5 315.8,297.5 327.8,311.8 "/>
<polygon fill="#DDDDD0" points="336.3,304.9 318.5,281.9 322.3,279 340.1,302 "/>
<polygon fill="#DDDDD0" points="347.8,293.5 330.8,272.1 334.5,269.1 351.6,290.5 "/>
<polygon fill="#DDDDD0" points="237.5,336.3 219.6,313.7 219.6,313.7 223.3,310.7 238.6,330 249.9,322.9 252.4,326.9 "/>
<polygon fill="#DDDDD0" points="279.7,262.9 263.1,241.1 266.9,238.2 283.5,260 "/>
<path fill="#DDDDD0" d="M271.1,324.7l-1.6-1.9c0,0-10.7-12.7-22.1-26.1l0,0c-11.4-13.4-23.5-27.6-26.1-30.5l0,0
	c-3.4-3.8-9.4-5.1-12-5.4l0,0c-0.9-0.1-1.4-0.1-1.4-0.1l0,0l-30.1-2.4l0,0l0.4-4.7l30,2.4c0.2,0.1,10.2,0.3,16.7,7.1l0,0
	c5,5.4,38.9,45.5,46.8,54.8l0,0l8.8-8.2l-66.9-75.5l3.6-3.2l70,79L271.1,324.7L271.1,324.7z"/>
<polygon fill="#DDDDD0" points="211.1,378.6 206.4,378.1 210.4,339.7 215.1,340.2 "/>
<polygon fill="#DDDDD0" points="198.1,359.2 193.3,358.7 198.9,310.3 203.6,310.9 "/>
<polygon fill="#DDDDD0" points="182.2,357.3 177.5,356.6 193,257.2 197.7,257.9 "/>
<polygon fill="#DDDDD0" points="161.6,380.2 156.9,379.6 172.8,262.7 177.5,263.4 "/>
<polygon fill="#DDDDD0" points="147,381.6 142.3,381.4 145,327.9 149.8,328.1 "/>
<polygon fill="#DDDDD0" points="152.6,95.8 140.4,0 145.1,0 157.3,95.2 "/>
<polygon fill="#DDDDD0" points="1.7,24.7 1.7,21.8 164.2,0 200,0 1.7,26.5 "/>
<path fill="#DDDDD0" d="M370.9,145.4L285,48.5L1.7,79.8V75l285.2-31.5l87.5,98.8L370.9,145.4L370.9,145.4z M0,80L0,80L0,80L0,80
	L0,80z"/>
<polygon fill="#DDDDD0" points="1.7,51.8 1.7,48.3 308.6,9.5 309.2,14.3 1.7,53.1 "/>
<polygon fill="#DDDDD0" points="167.2,95 159.3,30 164,29.4 171.9,94.4 "/>
<polygon fill="#DDDDD0" points="182.3,92.2 174.3,27.2 179.1,26.7 187,91.6 "/>
<polygon fill="#DDDDD0" points="197.7,90.2 187.1,0 191.9,0 202.4,89.7 "/>
<polygon fill="#DDDDD0" points="212.7,89 201.9,0 206.7,0 217.5,88.5 "/>
<polygon fill="#DDDDD0" points="235.6,108.3 232,94 230.6,87.1 220.6,0 225.4,0 235.3,86.4 236.6,92.9 240.2,107.2 "/>
<polygon fill="#DDDDD0" points="257.5,75.5 249.6,0 254.3,0 262.2,75 "/>
<polygon fill="#DDDDD0" points="283.1,55.7 280.1,52.1 343.6,0 351,0 "/>
<polygon fill="#DDDDD0" points="23.6,353.7 1.7,336.3 1.7,330.4 26.5,349.9 "/>
<polygon fill="#DDDDD0" points="64.7,492.8 57.5,489.6 160.3,255.4 167.5,258.6 "/>
<path fill="#DDDDD0" d="M808.8,956.9c0,0-179.3-63.4-200.8-71.3l0,0c-6.9-2.5-14.7-3.5-22.5-3.5l0,0c-14.7,0-29.4,3.5-37.9,6l0,0
	c-2.7,0.8-5.7,1.1-8.8,1.1l0,0c-16.1-0.1-37.7-7.4-38-7.5l0,0c0,0-18.2-6.5-41-14.6l0,0c-22.7-8-50.1-17.5-68.2-23.4l0,0
	c-17.1-5.5-31.1-12.7-40.3-27.8l0,0c-9.2-15.1-13.5-37.1-13.5-72.2l0,0c0-5.9,0.1-12.1,0.4-18.8l0,0c2.5-66.1,48.5-103.3,76-121.5
	l0,0c9.1-6,16.5-10.2,18.9-12.2l0,0c7.4-5.6,12.2-21.2,13.6-28.5l0,0c0.4-2,0.7-3.3,0.7-3.7l0,0c0.1-1.4,0.8-11,1.7-25.7l0,0
	c1.1-15.9,2.5-37.6,4-61.1l0,0c3-46.9,6.1-100.8,6.9-128.4l0,0c0-0.8,0-1.7,0-2.5l0,0c0-19-6.4-31.2-14.7-39.7l0,0
	c-8.3-8.5-18.8-13.1-27.1-15.7l0,0c-5.6-1.8-9.9-2.6-12.4-3.2l0,0c-4.1-1.1-14.4-3.3-23.6-5.2l0,0c-9.2-1.9-17.3-3.5-17.3-3.5l0,0
	l-0.4-0.1l-0.4-0.2c0,0-224.8-98.2-245.5-107.8l0,0c-21.1-9.7-54.2-31.1-54.3-31.2l0,0l-0.4-0.3L1.7,66.5v-3v-8.7l67.5,73.8
	c1.8,1.2,9.3,5.9,18.7,11.5l0,0c10.8,6.5,24.2,14.2,34.3,18.8l0,0c15.3,7.1,145.7,64.2,209.9,92.2l0,0c19.4,8.5,32.7,14.3,35.1,15.3
	l0,0c3.9,0.8,32.5,6.4,41,8.7l0,0c1.8,0.5,6.7,1.4,12.7,3.3l0,0c6,1.9,13.2,4.8,20.2,9.4l0,0c14,9.1,27.2,25.7,27.1,53.6l0,0
	c0,0.9,0,1.8,0,2.7l0,0c-1.6,55.7-12.7,215.6-12.7,215.7l0,0l0,0.2l0,0.2c0,0.1-1,6.6-3.6,14.5l0,0c-2.6,7.8-6.6,17.1-13.7,22.9l0,0
	c-3.6,2.8-10.4,6.6-19.5,12.6l0,0c-8.9,5.9-19.8,13.8-30.3,24l0,0c-21,20.4-40.7,49.6-42.2,91.2l0,0c-0.2,6.6-0.4,12.7-0.4,18.5l0,0
	c0,34.5,4.4,55.1,12.3,68.1l0,0c7.9,12.9,19.4,19,36,24.4l0,0c36.5,11.9,109.4,38.1,109.3,38l0,0c0,0,1.3,0.4,3.5,1.1l0,0
	c2.2,0.7,5.3,1.6,8.9,2.4l0,0c7.1,1.8,16.1,3.5,23,3.5l0,0c2.6,0,4.9-0.3,6.6-0.7l0,0c9-2.6,24.3-6.3,40.1-6.3l0,0
	c8.5,0,17.2,1.1,25.3,4l0,0c15.9,5.9,120.9,43.1,172.3,61.3l0,0c17.1,6.1,28.3,10,28.4,10l0,0L808.8,956.9L808.8,956.9z"/>
<polygon fill="#DDDDD0" points="411.1,659.9 403.2,659.5 419.5,327.2 362.2,0 364.6,0 370.2,0 427.4,326.7 "/>
<polygon fill="#DDDDD0" points="717.1,528 617.8,584.4 565.3,603.5 412.5,660.5 169.5,764.3 166.4,757 409.6,653.1 562.5,596.1 
	614.5,577.2 713.2,521.1 909.1,410.8 909.1,410.8 913,417.7 "/>
<polygon fill="#DDDDD0" points="540.5,718.1 383.6,713.4 351.1,737.7 203.5,886.5 197.9,880.9 345.9,731.7 381,705.4 540.8,710.2 
	"/>
<polygon fill="#DDDDD0" points="262.9,412 214.7,411.6 214.7,406.9 260.8,407.2 305.6,358.5 305.6,358.5 309.1,361.7 "/>
<polygon fill="#DDDDD0" points="384.7,378.6 333,378.3 323.7,376.6 304.5,359.8 283.3,360.9 283.1,356.2 306.2,354.9 325.8,372.2 
	333.5,373.6 384.7,373.8 "/>
<polygon fill="#DDDDD0" points="230.9,436.1 228.7,433.8 253.6,409.7 255.8,412 "/>
<polygon fill="#DDDDD0" points="263.6,433 260,429.9 315,366.1 318.6,369.2 "/>
<polygon fill="#DDDDD0" points="269.4,419.3 262.9,412.8 245.9,431.1 252.1,438.9 262.7,428.1 264.9,430.4 251.8,443.7 241.7,430.9 
	262.9,408.2 271.6,417 "/>
<polygon fill="#DDDDD0" points="307.3,358 303.8,354.7 335.1,321.6 338.6,324.9 "/>
<polygon fill="#DDDDD0" points="383.8,440.6 379,440.5 380,374.7 384.7,374.8 "/>
<polygon fill="#DDDDD0" points="320.2,368.7 316.7,365.4 320.5,361.3 315.8,345.5 320.3,344.2 325.8,362.5 "/>
<polygon fill="#DDDDD0" points="323.3,363.9 323.3,359.2 418.8,358.9 418.8,363.7 "/>
<path fill="#DDDDD0" d="M400.9,520.8c-1.6,1.4-2.2,2.7-2.2,4.2l0,0c0,1.8,1.1,4.3,3.7,7l0,0l0.7,0.7l-1.6,27l-19.8,0.2L375,717.7
	l-4.7-0.2l7-162.3l19.8-0.2l1.2-20.5c-2.7-3-4.3-6.2-4.3-9.5l0,0c0-2.9,1.4-5.7,3.8-7.8l0,0c0.5-0.5,0.8-1.1,0.8-2.3l0,0
	c0.1-2.4-1.7-6.2-2.6-7.7l0,0c-0.2-0.3-0.3-0.6-0.4-0.7l0,0l-39-46.8l1.7-1.5c0,0,10.1-9.3,20.8-19l0,0c7.6-6.9,10.6-15.1,11.7-18.6
	l0,0c0.2-0.8,0.4-1.4,0.4-1.6l0,0l0.8-69.3l0-2.4h-73v0v-4.8h77.8l0,7.2l-0.8,69.7l0,0.2c-0.1,0.3-2.3,12.8-13.6,23.1l0,0
	c-8.1,7.3-15.8,14.4-19.1,17.5l0,0l36.3,43.5l0.1,0.1c0,0.2,3.7,5.5,3.8,11.1l0,0c0,0,0,0.1,0,0.1l0,0
	C403.4,516.9,402.8,519.2,400.9,520.8L400.9,520.8z"/>
<polygon fill="#DDDDD0" points="419.6,355 395.4,355 395.4,350.2 419.6,350.2 "/>
<polygon fill="#DDDDD0" points="416.6,361.5 411.9,361.5 411.9,331.8 416.6,331.8 "/>
<polygon fill="#DDDDD0" points="417.8,402.1 384,402.1 384,397.4 417.8,397.4 "/>
<polygon fill="#DDDDD0" points="396.2,461.9 391.5,461.9 391.5,418.7 396.2,418.7 "/>
<polygon fill="#DDDDD0" points="411.8,486.4 377.8,444.4 381.4,441.4 415.5,483.4 "/>
<polygon fill="#DDDDD0" points="405.5,458.6 400.8,458.6 400.8,430.6 405.5,430.6 "/>
<polygon fill="#DDDDD0" points="415.4,434 395.2,434 395.2,429.2 415.4,429.2 "/>
<polygon fill="#DDDDD0" points="414.4,460.9 394.8,460.9 394.8,456.2 414.4,456.2 "/>
<polygon fill="#DDDDD0" points="398.5,505.2 395.5,501.5 405.4,493.4 408.4,497 "/>
<polygon fill="#DDDDD0" points="346.5,534.8 343.4,531.3 404.9,475.4 408.1,478.9 "/>
<path fill="#DDDDD0" d="M398.4,527.3L398.4,527.3L398.4,527.3L398.4,527.3L398.4,527.3z M394.8,530.4l-20.3-24.1l-0.1-0.1
	c0,0-0.2-0.3-0.6-0.9l0,0c-0.4-0.6-1-1.3-1.7-2.1l0,0c-1.4-1.5-3.2-2.7-4.2-2.6l0,0c-0.5,0-0.9,0.1-1.6,0.7l0,0
	c-2.6,2.4-9,8.9-14.7,14.7l0,0c-5.7,5.9-10.7,11.1-10.7,11.1l0,0l-3.4-3.3c0,0,20.1-21,25.6-26l0,0c1.4-1.3,3.1-2,4.8-2l0,0
	c3.5,0.1,5.9,2.3,7.6,4.1l0,0c1.5,1.6,2.5,3.1,2.8,3.6l0,0l20.1,23.8L394.8,530.4L394.8,530.4z"/>
<polygon fill="#DDDDD0" points="358.7,554.3 324.5,511.2 324.5,511.2 328.2,508.2 359.3,547.4 370.8,536.9 352.6,514.1 356.3,511.1 
	377.3,537.5 "/>
<polygon fill="#DDDDD0" points="372.9,533 369.7,529.5 383.7,516.6 386.9,520.1 "/>
<polygon fill="#DDDDD0" points="367.4,526.5 364.4,522.9 379.9,510.2 382.9,513.9 "/>
<polygon fill="#DDDDD0" points="385.1,543.9 387.3,547.1 383.4,549.8 378.9,543.2 395.2,528.1 395.2,528.1 398.4,531.6 "/>
<polygon fill="#DDDDD0" points="325.3,563.2 320.7,562.3 326.3,534.6 271.9,521.3 271.9,521.3 273.1,516.7 331.9,531.1 "/>
<polygon fill="#DDDDD0" points="324.3,551.8 268.5,540.5 269.4,535.9 325.2,547.1 "/>
<path fill="#DDDDD0" d="M326.2,516.5c-2.2,1.9-5,4.1-8.7,4.1l0,0c-0.5,0-1.1-0.1-1.6-0.2l0,0c-0.2,0-0.3-0.1-0.4,0l0,0
	c-0.6,0-1.3,0.4-2.2,1.7l0,0c-0.8,1.2-1.5,2.8-1.8,3.9l0,0c-0.2,0.7-0.3,1.2-0.3,1.2l0,0v0l-4.6-1c0.1-0.2,1-5.2,4.3-8.5l0,0
	c1.1-1.1,2.7-2,4.7-2l0,0c0.5,0,0.9,0.1,1.4,0.2l0,0c0.2,0,0.4,0.1,0.6,0.1l0,0c2.2,0.2,6.2-3.2,7.7-5.1l0,0c0.5-0.6,0.8-1,0.8-1
	l0,0l3.8,2.9C329.8,512.7,328.4,514.6,326.2,516.5L326.2,516.5z"/>
<polygon fill="#DDDDD0" points="372.1,572.7 367.4,572.7 367.5,563.1 322.2,563.1 260.4,551.6 260.4,551.6 261.3,546.9 322.6,558.3 
	372.3,558.3 "/>
<path fill="#DDDDD0" d="M614,545.9c-40.8,3.8-82.9,7.7-88.5,8.2l0,0c-10.6,0.9-24.1,6.2-27.9,11.5l0,0c-3,3.9-7.8,5.6-11.6,6.4l0,0
	c-3.5,0.8-6.4,0.8-7,0.8l0,0l-30.9,2.6H448c0,0-59.9,0.8-69.7,0.8l0,0c-4.8,0-12.2,0.3-19.1,1.3l0,0c-6.8,0.9-13.1,2.8-14.9,4.6l0,0
	c-6.7,6.1-17.7,6.4-17.9,6.5l0,0l-0.1,0l-70.6-1.9l0.1-4.8l70.4,1.8c0.2,0,0.7,0,1.5-0.1l0,0c1-0.1,2.5-0.3,4.1-0.7l0,0
	c3.2-0.7,6.9-2.1,9.2-4.3l0,0c3.8-3.4,10.4-4.8,17.5-5.9l0,0c7.2-1,14.7-1.3,19.7-1.3l0,0c9.5,0,67.4-0.8,69.6-0.8l0,0l30.9-2.6h0.1
	c0,0,0.6,0,1.8-0.1l0,0c1.1-0.1,2.7-0.3,4.4-0.6l0,0c3.4-0.7,7.1-2.3,8.8-4.7l0,0c5.7-7.4,19.6-12.1,31.2-13.4l0,0
	c11.1-1.1,168.7-15.6,168.7-15.6l0,0l0.4,4.7C694.2,538.5,654.8,542.1,614,545.9L614,545.9z"/>
<polygon fill="#DDDDD0" points="276.3,611.1 256.3,609.8 256.6,605.1 276.6,606.4 "/>
<polygon fill="#DDDDD0" points="586.2,626.7 457.9,622.5 293.4,613.4 293.6,608.6 458.1,617.7 586.4,622 586.4,622 "/>
<polygon fill="#DDDDD0" points="289.6,564.9 274.3,556.7 272,608.1 272,608.1 267.2,607.9 269.9,548.9 291.8,560.7 "/>
<polygon fill="#DDDDD0" points="291.8,706.7 276.1,706.7 280.4,554 280.4,554 285.2,554.2 281,702 291.8,702 "/>
<polygon fill="#DDDDD0" points="360.6,745.8 355.8,745.7 357.2,646.7 282.2,645.2 282.2,645.2 282.3,640.5 362,642.1 "/>
<polygon fill="#DDDDD0" points="999,970.6 994.5,969 1017.5,903.1 964.2,883.1 960.5,878.8 816.8,823.5 554.3,689.5 278.9,676 
	279.2,671.3 555.5,684.8 818.7,819.2 963.3,874.8 967,879 1023.5,900.2 "/>
<polygon fill="#DDDDD0" points="391.2,697 272.4,692.2 272.6,687.5 391.4,692.2 "/>
<polygon fill="#DDDDD0" points="370.6,711.2 319.9,708.6 291.4,721.6 291.4,721.6 289.5,717.3 319,703.8 370.8,706.5 "/>
<polygon fill="#DDDDD0" points="478.8,730.8 279.6,725.4 279.7,720.6 479,726 "/>
<polygon fill="#DDDDD0" points="318.3,744.5 289.7,743 289.9,738.3 318.6,739.8 "/>
<polygon fill="#DDDDD0" points="329.1,784.9 315.6,769 320.8,586.8 325.6,586.9 320.4,767.3 332.7,781.9 "/>
<polygon fill="#DDDDD0" points="885.2,979.7 816.2,954.8 817.9,950.3 882.3,973.6 890.6,951 343.4,752.5 345,748.1 896.7,948.2 "/>
<polygon fill="#DDDDD0" points="473.7,781.9 432.5,768 434,763.5 475.2,777.4 "/>
<path fill="#DDDDD0" d="M1022,966.5l-572.3-214c-1.4,0.3-2.7,0.6-3.6,0.9l0,0c-4.3,1.1-10.8,1.5-18.4,1.5l0,0
	c-16.8,0-38.9-2.4-52.2-7.2l0,0c-2.8-1-5.5-1.4-7.9-1.4l0,0c-10.9-0.1-19.3,8.4-21.1,10.6l0,0c-0.1,0.1-0.2,0.2-0.2,0.2l0,0
	l-30.4,60.2l-4.2-2.1l30.6-60.6l0.2-0.2c0.2-0.1,9.8-12.7,25.2-12.8l0,0c3,0,6.2,0.5,9.6,1.7l0,0c12.3,4.5,34.3,6.9,50.6,6.9l0,0
	c7.4,0,13.7-0.5,17.3-1.4l0,0c12.8-3.2,64.2-13.1,64.3-13.1l0,0l0.6-0.1L1034,928.3L1022,966.5L1022,966.5z M1019,960.3l9.1-29.1
	L509.4,740.5c-2.8,0.5-14.1,2.7-26.7,5.2l0,0c-8.4,1.7-17.3,3.5-24.5,5l0,0L1019,960.3L1019,960.3z"/>
<polygon fill="#DDDDD0" points="494.5,865.7 490,864.2 504.6,820.5 509.1,822 "/>
<polygon fill="#DDDDD0" points="511.9,809.4 507.4,807.7 515.7,785.1 520.2,786.8 "/>
<polygon fill="#DDDDD0" points="343.5,714.2 338.8,714 344,579.9 348.8,580.1 "/>
<polygon fill="#DDDDD0" points="365.1,830.2 312.8,810.5 298.8,791.7 302.9,586.3 302.9,586.3 307.6,586.4 303.6,790.2 315.8,806.6 
	366.8,825.7 "/>
<path fill="#DDDDD0" d="M355.1,812.5l-4.5-1.6l23.2-65.7c0,0,0-0.1,0-0.1l0,0c0-0.4-0.1-1-0.3-1.7l0,0c-0.3-1.5-0.8-3.4-1.8-5.3l0,0
	c-2-3.8-5-7.1-11.5-7.2l0,0v-4.8c8.5-0.1,13.5,5.1,15.8,9.8l0,0c2.4,4.8,2.6,9.3,2.6,9.4l0,0l0,0.5L355.1,812.5L355.1,812.5z
	 M355.1,812.5L355.1,812.5L355.1,812.5L355.1,812.5L355.1,812.5z"/>
<polygon fill="#DDDDD0" points="350,790.2 345.4,788.9 355.7,752.8 360.3,754.1 "/>
<polygon fill="#DDDDD0" points="368.2,823.5 363.7,822.1 382.7,763.8 387.2,765.3 "/>
<polygon fill="#DDDDD0" points="384,824.4 379.5,822.8 397.3,770.2 401.8,771.7 "/>
<polygon fill="#DDDDD0" points="397.5,828.3 393,826.8 419.1,752.3 423.6,753.9 "/>
<polygon fill="#DDDDD0" points="410.1,833.9 405.7,832.3 434.2,751.5 438.6,753.1 "/>
<polygon fill="#DDDDD0" points="529.3,740.3 523.5,744.3 479.3,862.7 474.8,861.1 519.6,741.3 525.6,737 534.9,720.2 539,722.5 "/>
<polygon fill="#DDDDD0" points="452.9,847.8 448.4,846.2 486,741.6 490.5,743.2 "/>
<polygon fill="#DDDDD0" points="464.8,854.9 460.4,853.1 505.5,738.4 509.9,740.1 "/>
<polygon fill="#DDDDD0" points="452.9,819.2 448.4,817.7 457.1,790 461.6,791.4 "/>
<polygon fill="#DDDDD0" points="453.4,806.4 434.4,799.7 436,795.2 455,801.9 "/>
<polygon fill="#DDDDD0" points="451.8,850.5 331.2,806.8 340.4,782 344.8,783.6 337.3,804 453.4,846 "/>
<polygon fill="#DDDDD0" points="453.8,835.7 348.5,799.3 350.1,794.8 455.4,831.3 "/>
<polygon fill="#DDDDD0" points="814.1,946.7 599.9,871.4 345.8,782.3 345.8,782.3 347.3,777.8 601.5,866.9 815.7,942.2 "/>
<polygon fill="#DDDDD0" points="278.6,792.7 275.9,788.7 300.4,772.5 303,776.5 "/>
<polygon fill="#DDDDD0" points="312.6,774.6 288.7,774.1 288.8,769.3 312.7,769.9 "/>
<polygon fill="#DDDDD0" points="391.3,695.2 386.5,695.2 386.5,679 391.3,679 "/>
<path fill="#DDDDD0" d="M475.6,331.3l-14.7,245l-0.2,0.5c-4,7.6-4.7,14.4-4.7,18.3l0,0c0,1.2,0.1,2.1,0.1,2.7l0,0
	c0.1,0.6,0.1,0.8,0.1,0.8l0,0l0,0.2v150.8h-4.8V599.2c-0.1-0.6-0.3-2-0.3-4.1l0,0c0-4.4,0.8-11.8,5.1-20.1l0,0l14.6-243.8
	c0-0.2,0-1.2-0.2-2.9l0,0c-0.2-1.9-0.5-4.6-1.2-7.7l0,0c-1.4-6.2-4.3-14.1-9.9-20.6l0,0l-0.4-0.5L412.5,0h4.8l46.3,297.3
	C475.7,312,475.6,331,475.6,331.3L475.6,331.3L475.6,331.3L475.6,331.3z"/>
<polygon fill="#DDDDD0" points="482.3,742.4 477.6,742.4 477.6,604.5 482.3,604.5 "/>
<polygon fill="#DDDDD0" points="428.5,651.8 423.7,651.6 426.5,574.7 431.3,574.9 "/>
<polygon fill="#DDDDD0" points="452.9,637.4 411.3,634.6 411.6,629.9 453.2,632.7 "/>
<path fill="#DDDDD0" d="M425.3,681l-4.7-0.8c0,0,0.2-0.9,0.3-2.4l0,0c0.2-1.5,0.3-3.6,0.3-5.8l0,0c0-3-0.3-6.3-1.3-8.7l0,0
	c-1-2.4-2.2-3.7-4.2-4.2l0,0l0.9-4.7c4.1,0.7,6.6,3.9,7.8,7.1l0,0c1.3,3.3,1.6,7.1,1.6,10.4l0,0C426,676.9,425.3,680.9,425.3,681
	L425.3,681z"/>
<polygon fill="#DDDDD0" points="435.6,681.4 430.9,681.4 430.9,650.9 435.6,650.9 "/>
<polygon fill="#DDDDD0" points="444.3,683 439.6,683 439.6,647.3 444.3,647.3 "/>
<path fill="#DDDDD0" d="M400.8,660.8l-4.7-0.1c0,0,0-0.1,0-0.3l0,0c0-1.2-0.1-6.4-1.8-11.1l0,0c-1.8-4.7-4.4-8.3-9.9-8.3l0,0
	c-1.2,0-2.5,0.2-4.1,0.6l0,0l-1.2-4.6c1.9-0.5,3.6-0.7,5.3-0.7l0,0c8.1,0,12.5,6,14.4,11.5l0,0c2,5.6,2.1,11.2,2.1,12.7l0,0
	C400.8,660.7,400.8,660.8,400.8,660.8L400.8,660.8z"/>
<polygon fill="#DDDDD0" points="447.1,607.5 421.8,607.2 421.9,602.5 447.1,602.8 "/>
<polygon fill="#DDDDD0" points="510.2,607.7 454.3,607.4 454.3,602.7 510.3,603 "/>
<polygon fill="#DDDDD0" points="417.1,528.5 416.9,523.7 451.3,522.1 451.6,526.9 "/>
<polygon fill="#DDDDD0" points="416.9,516.2 416.3,511.5 514.1,498 514.7,502.7 "/>
<polygon fill="#DDDDD0" points="418,500.3 417.5,495.6 453.1,491.8 453.6,496.6 "/>
<polygon fill="#DDDDD0" points="418.1,485.7 417.5,481 454.3,476.2 454.9,480.9 "/>
<polygon fill="#DDDDD0" points="418.9,467.8 418.2,463.1 748,412.8 748.7,417.5 "/>
<polygon fill="#DDDDD0" points="420.1,452 419.4,447.3 704.2,403.6 704.9,408.3 "/>
<polygon fill="#DDDDD0" points="420.5,435.7 419.8,431.1 755.9,378.8 756.6,383.5 "/>
<polygon fill="#DDDDD0" points="421.7,418.3 421,413.6 761.5,362.1 762.2,366.8 "/>
<polygon fill="#DDDDD0" points="421.7,401.7 421,397 766,345.7 766.7,350.4 "/>
<polygon fill="#DDDDD0" points="423.2,386.2 422.5,381.5 771.8,328.8 772.5,333.5 "/>
<polygon fill="#DDDDD0" points="424.9,370 424.2,365.3 1212.8,249.6 1213.5,254.3 "/>
<polygon fill="#DDDDD0" points="425.1,351.8 424.4,347.1 782.1,292.4 782.8,297.1 "/>
<polygon fill="#DDDDD0" points="473.4,331.2 472.7,326.5 512.1,320.9 512.7,325.6 "/>
<polygon fill="#DDDDD0" points="470.8,316.1 470.1,311.4 510.5,305.9 511.2,310.6 "/>
<polygon fill="#DDDDD0" points="462.5,301.7 461.8,297 505.8,290.8 506.4,295.5 "/>
<path fill="#DDDDD0" d="M452.3,287.6c-0.7,0.1-1.4,0.1-2,0.1l0,0c-6.6,0-10.7-4.5-12.9-8.4l0,0c-2.3-4-3-7.8-3.1-7.9l0,0v0l4.7-0.9
	c0,0,0,0.2,0.1,0.5l0,0c0.1,0.4,0.2,0.9,0.4,1.5l0,0c0.4,1.2,1,2.9,2,4.5l0,0c1.9,3.3,4.6,6,8.8,6l0,0c0.4,0,0.9,0,1.4-0.1l0,0
	c6-0.8,31.6-4.9,55.7-8.8l0,0c24.1-3.9,46.6-7.6,46.6-7.6l0,0l0.8,4.7C554.7,271.2,464.6,286,452.3,287.6L452.3,287.6z"/>
<polygon fill="#DDDDD0" points="1031.7,280.4 803.4,214.8 416.4,274.9 416.4,274.9 415.7,270.2 803.7,209.9 1033,275.8 "/>
<polygon fill="#DDDDD0" points="415.4,260.1 414.7,255.4 576.2,229.5 576.9,234.2 "/>
<polygon fill="#DDDDD0" points="412.2,246.9 411.5,242.2 574.6,215.3 575.4,220 "/>
<polygon fill="#DDDDD0" points="1174.5,259.5 835,164.6 606.6,199.5 601.9,196.3 406.4,224.7 406.4,224.7 405.7,220 603,191.4 
	607.7,194.5 835.3,159.7 1175.8,255 "/>
<polygon fill="#DDDDD0" points="402.7,210.5 402,205.8 601,175.7 601.7,180.4 "/>
<polygon fill="#DDDDD0" points="400.6,179.3 399.9,174.6 579.4,147.1 580.1,151.8 "/>
<polygon fill="#DDDDD0" points="396.4,164 395.7,159.3 561.4,135 562.1,139.7 "/>
<polygon fill="#DDDDD0" points="394.8,150.3 394.1,145.6 534,123.9 534.7,128.6 "/>
<polygon fill="#DDDDD0" points="421.6,256.5 418,230.1 422.7,229.5 426.4,255.9 "/>
<polygon fill="#DDDDD0" points="375.3,36.2 374.6,31.5 589.5,0 622.7,0 "/>
<polygon fill="#DDDDD0" points="392.6,78 380.2,0 385,0 397.3,77.3 "/>
<polygon fill="#DDDDD0" points="407.4,75.9 395.7,0 400.4,0 412.1,75.2 "/>
<polygon fill="#DDDDD0" points="438,70.8 431.9,25.3 436.6,24.7 442.7,70.2 "/>
<polygon fill="#DDDDD0" points="454.6,68.9 447.1,23.4 451.8,22.6 459.3,68.2 "/>
<polygon fill="#DDDDD0" points="511,639.5 511,639.5 506.3,639.3 518.3,386.4 458.4,0 463.2,0 523.1,386.1 "/>
<polygon fill="#DDDDD0" points="551.6,461.7 546.9,461.4 551.6,379.2 491.9,0 496.7,0 556.4,379 "/>
<polygon fill="#DDDDD0" points="524.7,111.7 507.6,0 512.5,0 529.4,111 "/>
<polygon fill="#DDDDD0" points="493.4,116 475.9,0 480.7,0 498.1,115.3 "/>
<polygon fill="#DDDDD0" points="541.7,110.5 524,0 528.7,0 546.4,109.8 "/>
<polygon fill="#DDDDD0" points="590.4,623.6 585.7,623.5 596.3,363.8 539.7,0 544.6,0 601.1,363.5 "/>
<polygon fill="#DDDDD0" points="546.8,320.1 546.1,315.4 589.6,308.6 590.4,313.3 "/>
<polygon fill="#DDDDD0" points="543.7,305 542.9,300.3 588.4,292.4 589.2,297.1 "/>
<polygon fill="#DDDDD0" points="540.6,290 539.7,285.3 566.6,280.1 567.5,284.8 "/>
<polygon fill="#DDDDD0" points="580.9,164.8 556.3,0 561.1,0 585.6,164.1 "/>
<polygon fill="#DDDDD0" points="591,704.9 559,790.8 554.5,789.1 586.6,703 655.6,559 572.5,0 574.5,0 577.1,0 660.6,559.7 "/>
<polygon fill="#DDDDD0" points="663.3,281.2 621.5,0 626.4,0 668,280.5 "/>
<polygon fill="#DDDDD0" points="635.2,317.7 596,48.7 600.7,48 639.9,317 "/>
<polygon fill="#DDDDD0" points="901.3,300.2 789.3,265.5 619.6,290 619.6,290 619,285.3 789.7,260.6 902.7,295.6 "/>
<polygon fill="#DDDDD0" points="676.3,264.1 637.5,0 642.2,0 680.3,258.8 753.6,248.8 754.2,253.5 "/>
<polygon fill="#DDDDD0" points="711.2,387.8 652.2,0 657,0 715.9,387.1 "/>
<polygon fill="#DDDDD0" points="794.3,72.3 789.1,134.7 722.9,376.1 539.8,717.8 535.7,715.5 718.4,374.3 784.4,133.9 789.5,72 
	794.5,0 799.2,0 "/>
<polygon fill="#DDDDD0" points="702.9,227.8 667.5,0 672.4,0 707.6,227 "/>
<polygon fill="#DDDDD0" points="719.1,224.6 683.8,0 688.7,0 723.8,223.9 "/>
<polygon fill="#DDDDD0" points="742.4,284.8 700.5,0 705.2,0 747.2,284.1 "/>
<polygon fill="#DDDDD0" points="693.3,247.6 692.6,242.9 758.1,233.2 758.8,237.9 "/>
<polygon fill="#DDDDD0" points="653.3,300.7 652.6,296 744.4,282.1 745.2,286.8 "/>
<polygon fill="#DDDDD0" points="734.8,205.2 734.2,200.5 768.6,195.7 769.3,200.4 "/>
<polygon fill="#DDDDD0" points="746.8,199.6 716.7,0 721.4,0 751.5,198.9 "/>
<polygon fill="#DDDDD0" points="759.9,174.7 732.9,0 737.6,0 764.6,174 "/>
<polygon fill="#DDDDD0" points="761.4,156.1 760.6,151.4 782,147.8 782.8,152.5 "/>
<polygon fill="#DDDDD0" points="769,135.4 749.6,0 754.2,0 773.7,134.8 "/>
<polygon fill="#DDDDD0" points="768.6,103.4 767.7,98.7 788.7,94.7 789.6,99.4 "/>
<polygon fill="#DDDDD0" points="778.5,97.8 764.4,0 769.3,0 783.2,97.1 "/>
<polygon fill="#DDDDD0" points="793.8,44 773.6,42.8 773.8,38.1 794,39.2 "/>
<polygon fill="#DDDDD0" points="781.6,18.6 778.8,0 783.5,0 786.3,17.9 "/>
<polygon fill="#DDDDD0" points="806.9,130.5 802.2,130.2 812.4,0 817.1,0 "/>
<polygon fill="#DDDDD0" points="799.1,167.9 793.9,134.3 798.6,133.6 803.8,167.2 "/>
<polygon fill="#DDDDD0" points="799.8,152.9 799.1,148.2 821.6,144.6 822.4,149.3 "/>
<polygon fill="#DDDDD0" points="763.7,298.5 759.1,297.3 794.5,168.3 799.1,169.5 "/>
<path fill="#DDDDD0" d="M540.5,713l-32.9,166.7l-5.6,17.5l-4.5-1.4l5.5-17.3l32.8-166.1l7.4-182.8l-54.4,7.9l-4.1,14.7L480,551
	l5-17.7l63.1-9.1L540.5,713L540.5,713z M484.6,552.3L484.6,552.3L484.6,552.3L484.6,552.3L484.6,552.3z"/>
<polygon fill="#DDDDD0" points="493,534.1 491.4,504 496.2,503.8 497.8,533.9 "/>
<polygon fill="#DDDDD0" points="518.3,469.8 517.6,465.1 670.4,441.7 671.1,446.4 "/>
<polygon fill="#DDDDD0" points="685.9,443.9 685.2,439.2 745.2,430.3 745.9,435 "/>
<polygon fill="#DDDDD0" points="591.7,576.4 591.5,571.7 614,570.5 614.3,575.2 "/>
<polygon fill="#DDDDD0" points="591.4,560.6 591,555.8 657.2,551.5 657.5,556.2 "/>
<polygon fill="#DDDDD0" points="593.5,536.4 592.8,531.7 681.7,518.6 682.4,523.3 "/>
<polygon fill="#DDDDD0" points="593.6,523.7 592.8,519 724.6,497.2 725.4,501.9 "/>
<polygon fill="#DDDDD0" points="715.3,487.4 593.9,506.3 593.9,506.3 593.2,501.6 711.8,483.2 717.6,467.1 722.1,468.7 "/>
<polygon fill="#DDDDD0" points="596.3,474.2 595.6,469.5 737.3,448.9 738,453.6 "/>
<polygon fill="#DDDDD0" points="710.8,454.3 708.8,438.4 713.5,437.9 715.5,453.7 "/>
<polygon fill="#DDDDD0" points="1712,1197.6 1435.9,980.8 1140.4,744.4 902,591.7 726.8,504.3 726.8,504.3 730.3,497.2 905.9,584.8 
	1145,738 1440.8,974.6 1712,1187.6 1712,1193.3 "/>
<path fill="#DDDDD0" d="M604.9,711.7c-0.4,1.1-3.8,9.8-8.7,22.6l0,0c-5.2,13.7-12.3,32-19.4,50.7l0,0
	c-14.2,37.3-28.9,76.2-30.4,81.3l0,0c-3.2,11-7,12.7-8.3,13l0,0l-0.2,0l-2.9,0.2l-26.6-10.8v0l1.8-4.4l25.6,10.4l1.2-0.1
	c0.2-0.1,0.4-0.4,0.8-0.8l0,0c0.9-1.2,2.5-3.7,4-8.9l0,0c1.7-5.6,16.3-44.2,30.5-81.6l0,0c14.3-37.4,28.1-73.4,28.1-73.4l0,0l0-0.1
	l82.1-168.3l-5.1-79.9l-7.1-7.5l-40.9-295.6L604.9,0h4.7l24.7,157.7L675,451.9l7.2,7.6l5.2,82.9L604.9,711.7L604.9,711.7z"/>
<polygon fill="#DDDDD0" points="541.7,869.4 510.4,857.9 512,853.5 543.3,864.9 "/>
<polygon fill="#DDDDD0" points="552.9,841.7 515.3,829.8 516.7,825.3 554.3,837.2 "/>
<polygon fill="#DDDDD0" points="561.8,816.7 521.9,801.3 523.6,796.8 563.5,812.3 "/>
<polygon fill="#DDDDD0" points="568.4,719.6 537.2,802.6 532.8,801 564.1,717.7 639,567.6 643.2,569.7 "/>
<polygon fill="#DDDDD0" points="642.7,763.9 565.4,722.9 538.1,717.4 539,712.7 567.1,718.3 645,759.7 "/>
<polygon fill="#DDDDD0" points="560.5,720.6 545.4,703.9 522.2,702.8 522.4,698 547.6,699.3 564.1,717.4 "/>
<polygon fill="#DDDDD0" points="582.1,685 560.4,672.6 481.1,669.9 481.1,669.9 481.2,665.1 561.8,667.9 584.5,680.9 "/>
<polygon fill="#DDDDD0" points="533.4,655.6 480.7,654.8 480.8,650.1 533.4,650.9 "/>
<polygon fill="#DDDDD0" points="570.6,656 541.7,655.6 541.7,650.9 570.6,651.3 "/>
<path fill="#DDDDD0" d="M579.2,641.8l-55-2.3l-0.7,30.9l-4.7-0.1l0.9-35.7l59.8,2.5L579.2,641.8L579.2,641.8z M523.5,670.3
	L523.5,670.3L523.5,670.3L523.5,670.3z"/>
<polygon fill="#DDDDD0" points="515.1,639.8 508.8,639.6 508.9,634.8 515.3,635 "/>
<polygon fill="#DDDDD0" points="576.1,614.5 549.7,597.8 520.7,598.2 520.7,607.7 529.4,607.7 529.4,607.7 529.4,612.5 516,612.5 
	516,593.5 551.1,593 578.6,610.4 "/>
<polygon fill="#DDDDD0" points="602.4,644.7 583,634.4 585.2,630.2 604.6,640.5 "/>
<polygon fill="#DDDDD0" points="856.5,838.3 852.4,835.9 869.8,805.9 574.3,652.2 576.5,648 876.4,804 "/>
<polygon fill="#DDDDD0" points="876.1,771.2 591.3,617.7 593.5,613.5 878.4,767 "/>
<polygon fill="#DDDDD0" points="618.7,613.4 599.7,604.3 601.7,600 620.7,609.1 "/>
<polygon fill="#DDDDD0" points="612.3,608.3 608,606.3 614.4,592.8 618.7,594.9 "/>
<polygon fill="#DDDDD0" points="845.9,702.9 615.8,584.9 618,580.6 848,698.7 "/>
<polygon fill="#DDDDD0" points="1112.4,832.1 851.3,664.8 653.9,564.7 653.9,564.7 656,560.4 853.7,660.7 1114.9,828.1 "/>
<polygon fill="#DDDDD0" points="1689.4,1241.7 1111.5,782.1 881.4,634.5 707,545.1 707,545.1 710.6,538 885.3,627.6 1116.1,775.6 
	1694.4,1235.5 "/>
<polygon fill="#DDDDD0" points="859.8,447.2 750.5,416.7 751.8,412.1 861,442.6 "/>
<polygon fill="#DDDDD0" points="907.4,403.2 765.5,364 766.8,359.4 908.6,398.6 "/>
<path fill="#DDDDD0" d="M927.3,417.9c-4.2,0-7.8-0.8-10.6-2.6l0,0c-2.8-1.7-4.6-4.8-4.5-8.1l0,0c0-2.2,0.7-4.5,1.9-6.9l0,0
	c1.5-2.8,4.2-4.4,7.3-5.3l0,0c3.1-0.9,6.8-1.2,10.7-1.2l0,0c14.8,0,33.3,4.7,33.4,4.7l0,0h0l-0.6,2.6l1.1,1.5
	C951.3,413.3,937.4,417.9,927.3,417.9L927.3,417.9z M917,407.2c0,1.9,0.7,3,2.3,4.2l0,0c1.6,1.1,4.4,1.8,8,1.8l0,0
	c7.7,0,19-3.3,31.3-11.3l0,0c-1.5-0.3-3.2-0.7-5.1-1l0,0c-6.3-1.2-14.4-2.3-21.3-2.3l0,0c-3.6,0-6.9,0.3-9.4,1l0,0
	c-2.5,0.7-3.9,1.8-4.4,2.9l0,0C917.4,404.4,917,406,917,407.2L917,407.2C917,407.2,917,407.2,917,407.2L917,407.2z"/>
<path fill="#DDDDD0" d="M936.5,429.6c-13.4-0.1-28.7-4.9-36.5-10.8l0,0c-2.6-2-4.5-4.1-4.9-7l0,0c-0.2-1.5-0.2-2.9-0.2-4.3l0,0
	c0-4,1-7.5,3.6-10.7l0,0c2.6-3.2,6.4-6.1,12.4-10.5l0,0c6.4-4.6,14.5-5.8,21.8-5.8l0,0c10.3,0,19.1,2.5,19.2,2.5l0,0l-1.3,4.6
	c0,0-2-0.6-5.3-1.2l0,0c-3.3-0.6-7.8-1.2-12.6-1.2l0,0c-6.8,0-14,1.2-19,4.9l0,0c-5.9,4.3-9.5,7.2-11.5,9.6l0,0
	c-1.9,2.5-2.5,4.3-2.6,7.7l0,0c0,1.1,0.1,2.4,0.2,3.8l0,0c0,0.6,0.9,2.1,3.1,3.7l0,0c2.1,1.6,5.2,3.3,8.8,4.8l0,0
	c7.2,3,16.6,5.1,24.8,5.1l0,0c8.5,0,15.2-2.3,17.7-7.2l0,0l4.2,2.2C954.4,427.2,945.6,429.6,936.5,429.6L936.5,429.6z M951.9,383
	L951.9,383L951.9,383L951.9,383L951.9,383L951.9,383z"/>
<path fill="#DDDDD0" d="M1014.1,164.7l-0.1,0.2c0,0-6,21.4-12.6,45.2l0,0c-6.6,23.7-13.7,49.9-15.9,59.3l0,0
	c-4.6,19.3-17.4,59.5-25.8,75.3l0,0c-3.8,7-4.9,17.6-4.9,26.3l0,0c0,4.3,0.2,8.2,0.5,11l0,0c0.2,2.7,0.5,4.3,0.5,4.4l0,0l-4.7,0.7
	c0-0.1-1-7.1-1-16.1l0,0c0-9.1,1-20.2,5.4-28.5l0,0c8-14.8,21-55.4,25.4-74.2l0,0c4.4-18.6,27.1-99.6,28.5-104.5l0,0L1020.5,0h4.6
	L1014.1,164.7L1014.1,164.7z M955.9,386.4C955.9,386.4,955.9,386.4,955.9,386.4L955.9,386.4L955.9,386.4L955.9,386.4L955.9,386.4z"
	/>
<polygon fill="#DDDDD0" points="996.2,158.4 938,359.1 938,359.1 933.5,357.7 991.5,157.5 1001,0 1005.6,0 "/>
<polygon fill="#DDDDD0" points="975.8,153.9 922.1,353.6 931.9,382.5 927.4,384 917.2,353.7 971.1,153.1 982.3,0 987,0 "/>
<path fill="#DDDDD0" d="M958.7,147l-78.2,286.8l-4.6-1.3L954,146.2L963,0h4.9L958.7,147L958.7,147z M880.5,433.8L880.5,433.8
	L880.5,433.8L880.5,433.8L880.5,433.8z"/>
<polygon fill="#DDDDD0" points="938.6,142.5 858.1,444.1 853.5,442.8 933.9,141.7 943.9,0 948.6,0 "/>
<path fill="#DDDDD0" d="M921.2,136.7l-87.4,320.6l-4.6-1.2l87.3-320.1L924.4,0h4.9L921.2,136.7L921.2,136.7z M833.8,457.3
	L833.8,457.3L833.8,457.3L833.8,457.3L833.8,457.3z"/>
<polygon fill="#DDDDD0" points="901.9,132.7 809.5,472.6 809.5,472.6 804.9,471.3 897.2,131.9 905.3,0 910,0 "/>
<polygon fill="#DDDDD0" points="882.9,126.1 787.6,484.7 787.6,484.7 783,483.5 878.2,125.3 886.8,0 891.6,0 "/>
<polygon fill="#DDDDD0" points="866.1,122.9 763.9,497.9 759.3,496.7 861.3,122.2 868.9,0 873.7,0 "/>
<path fill="#DDDDD0" d="M849.4,125.9L744.8,508.2l-4.6-1.3l104.4-381.9l8.6-125h4.8L849.4,125.9L849.4,125.9z M744.8,508.2
	L744.8,508.2L744.8,508.2L744.8,508.2L744.8,508.2z"/>
<polygon fill="#DDDDD0" points="832.8,126.9 731.8,499.5 619.8,718.9 547.5,911.5 540.1,908.7 612.5,715.7 724.3,496.7 824.9,125.6 
	835.4,0 843.2,0 "/>
<polygon fill="#DDDDD0" points="982.9,191.4 966.6,187.2 967.8,182.6 984.1,186.8 "/>
<polygon fill="#DDDDD0" points="988.8,178.2 970.3,174 971.4,169.4 989.9,173.6 "/>
<polygon fill="#DDDDD0" points="1149.3,144 864.9,124.8 864.9,124.8 865.2,120.1 1149.3,139.2 1712,92.8 1712,97.6 "/>
<polygon fill="#DDDDD0" points="1148,48.9 1127.2,52.6 796.5,28.8 796.5,28.8 796.8,24.1 1127,47.8 1147.4,44.1 1669.9,0 1712,0 
	1712,1.7 "/>
<polygon fill="#DDDDD0" points="1033.9,170.5 1005.3,270.6 1000.8,269.3 1029.2,169.7 1039.7,0 1044.4,0 "/>
<polygon fill="#DDDDD0" points="1053.4,176.3 1025.4,275.3 1020.8,274 1048.7,175.5 1060.1,0 1064.9,0 "/>
<path fill="#DDDDD0" d="M1070.9,181l-23.8,95.3l-4.6-1.1l23.7-94.9L1079,0h4.8L1070.9,181L1070.9,181z M1047.1,276.3L1047.1,276.3
	L1047.1,276.3L1047.1,276.3L1047.1,276.3z"/>
<path fill="#DDDDD0" d="M1089.9,185.3l-23.8,87.4l-4.6-1.2l23.7-86.9L1097,0h4.9L1089.9,185.3L1089.9,185.3z M1066,272.7L1066,272.7
	L1066,272.7L1066,272.7L1066,272.7z"/>
<polygon fill="#DDDDD0" points="1108.3,191.1 1087.7,270.5 1083.1,269.3 1103.6,190.3 1116.6,0 1121.4,0 "/>
<polygon fill="#DDDDD0" points="1140,262.7 1125.8,94.2 1130.5,93.8 1144.8,262.3 "/>
<polygon fill="#DDDDD0" points="1155.8,240 1097.6,222.6 1099,218 1157.2,235.4 "/>
<polygon fill="#DDDDD0" points="1155.7,258.5 1135.8,0 1140.6,0 1160.5,258.1 "/>
<polygon fill="#DDDDD0" points="1108.3,178.7 1108.2,173.9 1134.3,173.1 1134.4,177.9 "/>
<polygon fill="#DDDDD0" points="1133.2,162.4 1109.4,162.4 1109.4,157.7 1133.2,157.7 "/>
<path fill="#DDDDD0" d="M1142.2,72.1l-8.6-0.4l-18.3,16l-3.1-3.6l19.7-17.3l10.5,0.4L1142.2,72.1L1142.2,72.1z M1115.3,87.8
	L1115.3,87.8L1115.3,87.8L1115.3,87.8L1115.3,87.8z"/>
<polygon fill="#DDDDD0" points="1135.1,69.5 1130.4,69.2 1131.6,48.2 1136.3,48.5 "/>
<polygon fill="#DDDDD0" points="1174.3,256.9 1151.8,7 1156.5,6.5 1179.1,256.5 "/>
<polygon fill="#DDDDD0" points="1174.8,9.5 1051.2,0 1050.6,0 1113.4,0 1174.7,4.8 1224.4,0 1276,0 "/>
<polygon fill="#DDDDD0" points="1190.6,265.6 1169.6,0 1174.3,0 1195.3,265.2 "/>
<path fill="#DDDDD0" d="M1220.6,286.2L1220.6,286.2L1220.6,286.2L1220.6,286.2L1220.6,286.2z M1216,287.5l-10.4-35.5L1185.8,0h4.7
	l19.9,251.1l10.2,35L1216,287.5L1216,287.5z"/>
<polygon fill="#DDDDD0" points="1222.6,249.4 1201,0 1205.7,0 1227.4,249 "/>
<polygon fill="#DDDDD0" points="1235.7,249 1216.4,0 1221,0 1240.4,248.6 "/>
<polygon fill="#DDDDD0" points="1251.1,248.2 1231,0 1235.5,0 1255.9,247.8 "/>
<polygon fill="#DDDDD0" points="1267,247 1247.1,0 1251.8,0 1271.7,246.6 "/>
<polygon fill="#DDDDD0" points="1285.6,243.5 1265.3,0 1269.9,0 1290.3,243.1 "/>
<polygon fill="#DDDDD0" points="1301,241.9 1281.8,0 1286.4,0 1305.8,241.5 "/>
<polygon fill="#DDDDD0" points="1416.9,432.5 1320.1,240.3 1301.8,34.3 1301.8,34.3 1306.6,33.9 1324.7,239 1421.1,430.3 "/>
<path fill="#DDDDD0" d="M1419.9,449.8c-6,0-10.8-4.8-10.8-10.8l0,0c0-6,4.8-10.8,10.8-10.8l0,0c6,0,10.8,4.8,10.8,10.8l0,0
	C1430.7,445,1425.8,449.8,1419.9,449.8L1419.9,449.8z M1419.9,445.1c3.3,0,6-2.7,6-6l0,0c0-3.3-2.7-6-6-6l0,0c-3.3,0-6,2.7-6,6l0,0
	C1413.9,442.4,1416.6,445.1,1419.9,445.1L1419.9,445.1z"/>
<path fill="#DDDDD0" d="M1391,334.9L1391,334.9L1391,334.9L1391,334.9L1391,334.9z M1386.8,337l-50.5-101L1317.9,0h4.8l18.3,234.7
	l50.1,100.2L1386.8,337L1386.8,337z"/>
<polygon fill="#DDDDD0" points="1403,326.4 1371.8,267.3 1376,265.1 1407.2,324.1 "/>
<polygon fill="#DDDDD0" points="1363.2,233.1 1345.2,0 1349.8,0 1367.9,232.8 "/>
<polygon fill="#DDDDD0" points="1308.9,259.9 1308.2,255.2 1329.6,252.4 1330.2,257.1 "/>
<polygon fill="#DDDDD0" points="1296,259.9 1294.3,245.1 1299,244.6 1300.7,259.4 "/>
<polygon fill="#DDDDD0" points="1260.6,265 1260.1,246.8 1264.9,246.6 1265.4,264.8 "/>
<polygon fill="#DDDDD0" points="1229.8,269.1 1229,253.7 1233.7,253.4 1234.5,268.9 "/>
<path fill="#DDDDD0" d="M1577.3,223.4l-227.2,32.5l-0.7-4.7l227.2-32.5l135.4-20.2v4.8L1577.3,223.4L1577.3,223.4z M1350.1,255.9
	L1350.1,255.9L1350.1,255.9L1350.1,255.9L1350.1,255.9z"/>
<path fill="#DDDDD0" d="M1188.1,293.1c-1.8,0.2-3.4,0.3-5,0.3l0,0c-12.5,0.1-19.6-7.1-22.9-14.5l0,0c-3.4-7.4-3.7-15.2-3.7-17.8l0,0
	c0-0.6,0-0.9,0-1l0,0l0,0l4.7,0.2c0,0,0,0.2,0,0.7l0,0c0,2.3,0.3,9.5,3.2,15.9l0,0c3,6.3,8,11.7,18.6,11.7l0,0
	c1.4,0,2.8-0.1,4.4-0.3l0,0c15.2-2,147.2-20.2,275.3-37.9l0,0C1590.9,232.8,1712,216,1712,216v1.8v2.9
	C1711.9,220.8,1218.6,289.2,1188.1,293.1L1188.1,293.1z"/>
<path fill="#DDDDD0" d="M1448.1,278.1l-87.8,32.4l-1.6-4.5l88.3-32.6l15.7-2l0.6,4.7L1448.1,278.1L1448.1,278.1z M1360.2,310.4
	L1360.2,310.4L1360.2,310.4L1360.2,310.4L1360.2,310.4z"/>
<polygon fill="#DDDDD0" points="1475.2,274.9 1474.5,270.2 1712,235.4 1712,240.2 "/>
<polygon fill="#DDDDD0" points="1475.2,286.8 1469.7,252.3 1474.4,251.6 1479.9,286.1 "/>
<polygon fill="#DDDDD0" points="1413.2,226 1400.4,26.3 1405.1,26 1417.9,225.7 "/>
<polygon fill="#DDDDD0" points="1392.9,227.3 1375.2,0 1383,0 1400.8,226.7 "/>
<path fill="#DDDDD0" d="M1712,887.4l-155.4-179.7l-56.3-114.7l-0.1-0.6c0,0-6.7-43.5-10.2-68.2l0,0c-1.2-8.3-2-14.3-2.1-16.5l0,0
	c-0.3-4.4-1.2-15.2-1.2-24l0,0c0-2.5,0.1-4.9,0.3-7l0,0c0.2-2.1,0.5-3.9,1.2-5.6l0,0c0.6-1.1,1-5.3,1-9.2l0,0c0-2.6-0.1-5.2-0.3-7.1
	l0,0c-0.1-1-0.1-1.9-0.2-2.4l0,0L1376,232.2l-0.1-0.7c0-0.1-3.1-22.7-3.6-32.3l0,0l0,0c0-0.3,0-0.6,0-0.7l0,0c0.2-6.8,5-11.4,9-14.8
	l0,0c4.1-3.3,8.1-5.4,8.2-5.4l0,0l3.6,7.1c0,0-0.2,0.1-0.5,0.3l0,0c-0.4,0.2-0.9,0.5-1.6,0.9l0,0c-1.3,0.8-3.1,2-4.7,3.3l0,0
	c-3.5,2.7-6.2,6.5-6.1,8.6l0,0l0,0l0,0.1l0,0.1c0.2,4.3,1.1,12.3,1.9,19.2l0,0c0.7,5.5,1.3,10.2,1.5,11.9l0,0l112.9,220.3l0.1,0.7
	c0,0.1,0.5,5.3,0.5,11l0,0c-0.1,4.4-0.2,8.7-1.6,12.3l0,0c-0.1,0.3-0.5,1.6-0.6,3.3l0,0c-0.2,1.7-0.2,3.9-0.2,6.2l0,0
	c0,8.3,0.9,18.9,1.1,23.6l0,0c0.1,1.4,0.9,7.7,2.1,15.9l0,0c1.2,8.2,2.7,18.5,4.2,28.6l0,0c2.7,18.1,5.4,35.5,5.9,38.9l0,0
	l55.3,112.7L1712,875.2v10.1L1712,887.4L1712,887.4z"/>
<polygon fill="#DDDDD0" points="1350.7,16.3 1350.3,11.5 1475.7,0 1529.5,0 "/>
<polygon fill="#DDDDD0" points="1633.1,630.6 1445.4,276.8 1436.5,257.4 1431.7,223.3 1418.7,0 1420.1,0 1423.6,0 1436.4,222.8 
	1441.1,256 1449.6,274.7 1637.3,628.4 "/>
<polygon fill="#DDDDD0" points="1624.5,620.4 1624.4,615.6 1650.4,615.2 1650.4,620 "/>
<polygon fill="#DDDDD0" points="1547.9,769.2 1544.2,766.3 1712,554.6 1712,562.1 "/>
<path fill="#DDDDD0" d="M1449.3,867.9l-12.7-7.1l-140.1,176.7l-3.7-3l142.6-179.9l12.7,7.1l237.9-301.9l3.7,2.9L1449.3,867.9
	L1449.3,867.9z M1296.5,1037.4L1296.5,1037.4L1296.5,1037.4L1296.5,1037.4L1296.5,1037.4z"/>
<polygon fill="#DDDDD0" points="1562.2,703 1558.5,700.1 1664.2,563.5 1667.9,566.4 "/>
<polygon fill="#DDDDD0" points="1506,589.5 1505.4,584.8 1712,554.9 1712,559.8 "/>
<polygon fill="#DDDDD0" points="1567.3,689.7 1516.6,587.4 1520.9,585.3 1571.6,687.6 "/>
<polygon fill="#DDDDD0" points="1712,785.4 1577,678.2 1532.1,585 1532.1,585 1536.3,582.9 1580.8,675.1 1712,779.2 1712,782.3 "/>
<polygon fill="#DDDDD0" points="1588.7,661.9 1547,581.5 1532.6,480.9 1532.6,480.9 1537.3,480.2 1551.5,580 1592.9,659.7 "/>
<polygon fill="#DDDDD0" points="1598.2,649.9 1564.5,580.6 1568.8,578.5 1602.5,647.9 "/>
<polygon fill="#DDDDD0" points="1608.9,636.1 1578.8,577.9 1583,575.7 1613.1,633.9 "/>
<polygon fill="#DDDDD0" points="1534.1,655.4 1531.9,651.1 1621.4,604.8 1623.6,609 "/>
<polygon fill="#DDDDD0" points="1519.6,617.1 1517.9,612.6 1528.2,608.7 1529.9,613.1 "/>
<polygon fill="#DDDDD0" points="1511.6,605.8 1509.3,601.6 1521.2,595.3 1523.4,599.5 "/>
<polygon fill="#DDDDD0" points="1594.6,599.9 1592.5,595.7 1612.3,585.8 1614.4,590 "/>
<polygon fill="#DDDDD0" points="1602.6,601.7 1599,595.4 1603.2,593.1 1606.7,599.4 "/>
<polygon fill="#DDDDD0" points="1712,727.9 1606.4,643.6 1609.3,639.9 1712,721.9 1712,724.8 "/>
<polygon fill="#DDDDD0" points="1712,667.8 1613.9,593.6 1616.8,589.8 1712,662.2 1712,665 "/>
<polygon fill="#DDDDD0" points="1709.6,610.4 1658.6,567.1 1661.6,563.5 1712,606.1 1712,612.7 "/>
<path fill="#DDDDD0" d="M1704.8,546l-5.6-1.2l-54.8,5.8l-5.5,3.9l-309,43.7l-0.7-4.7L1637,550l5.6-4l56.8-6l5.5,1.2l7.1-1.3v4.8
	L1704.8,546L1704.8,546z M1329.9,598.2L1329.9,598.2L1329.9,598.2L1329.9,598.2L1329.9,598.2z"/>
<polygon fill="#DDDDD0" points="1699,551.4 1643.3,557.5 1638.7,554.7 1638.7,554.7 1641.1,550.6 1644.4,552.6 1697.2,546.8 
	1704.2,541.6 1707,545.4 "/>
<polygon fill="#DDDDD0" points="1625,599.4 1621.1,596.6 1641.9,566.9 1645.8,569.7 "/>
<polygon fill="#DDDDD0" points="1399.3,568.6 1398.6,563.9 1712,518.1 1712,522.9 "/>
<polygon fill="#DDDDD0" points="1407.1,60 1406.7,55.2 1654.2,33.6 1654.6,38.3 "/>
<polygon fill="#DDDDD0" points="1406,43.1 1405.6,38.3 1652.7,19.3 1653,24 "/>
<polygon fill="#DDDDD0" points="1471.5,213.1 1456.4,0 1461.2,0 1476.3,212.7 "/>
<polygon fill="#DDDDD0" points="1458.3,238.5 1456.8,225.9 1461.5,225.3 1463.1,237.9 "/>
<polygon fill="#DDDDD0" points="1470.5,235.9 1468.9,224.8 1473.6,224.2 1475.2,235.3 "/>
<polygon fill="#DDDDD0" points="1426.3,282.3 1418.9,261.2 1423.4,259.6 1430.7,280.8 "/>
<polygon fill="#DDDDD0" points="1404.4,212.6 1404,207.9 1415.1,206.8 1415.5,211.5 "/>
<polygon fill="#DDDDD0" points="1450.9,172.9 1444.6,69.9 1449.3,69.6 1455.7,172.6 "/>
<polygon fill="#DDDDD0" points="1431.4,157.3 1431.1,152.5 1451.2,151.2 1451.5,156 "/>
<polygon fill="#DDDDD0" points="1454.8,161.6 1454.4,156.9 1469.1,155.7 1469.5,160.4 "/>
<polygon fill="#DDDDD0" points="1453.2,148.6 1452.9,143.8 1469.9,142.6 1470.2,147.4 "/>
<polygon fill="#DDDDD0" points="1429.7,129.7 1429.4,124.9 1564.5,116.1 1564.8,120.8 "/>
<polygon fill="#DDDDD0" points="1565.7,126 1565.3,121.2 1712,108.8 1712,113.6 "/>
<polygon fill="#DDDDD0" points="1567.2,140.2 1566.9,135.5 1697.9,126 1698.3,130.7 "/>
<polygon fill="#DDDDD0" points="1488.4,149 1488.2,144.2 1565.4,140.7 1565.6,145.4 "/>
<polygon fill="#DDDDD0" points="1596.4,203.4 1580.1,0 1584.8,0 1601.1,203.1 "/>
<polygon fill="#DDDDD0" points="1711.9,376 1604.2,202.9 1608.3,200.4 1712,367.1 "/>
<polygon fill="#DDDDD0" points="1516.1,189.8 1515.9,185 1594.7,182.2 1594.9,187 "/>
<path fill="#DDDDD0" d="M1558.7,207.9L1558.7,207.9L1558.7,207.9L1558.7,207.9L1558.7,207.9z M1554,208.1l-5.1-100.2L1537.9,0h4.7
	l11,107.5l5.2,100.3L1554,208.1L1554,208.1z"/>
<polygon fill="#DDDDD0" points="1669.9,385.1 1565.9,210.3 1556.8,0 1558,0 1561.7,0 1570.6,208.9 1674,382.7 "/>
<polygon fill="#DDDDD0" points="1556.5,173.1 1556.2,168.4 1645.7,162 1646,166.8 "/>
<polygon fill="#DDDDD0" points="1611.4,193.5 1609.8,167.7 1614.6,167.4 1616.1,193.2 "/>
<polygon fill="#DDDDD0" points="1643.9,169 1628.6,0 1633.2,0 1648.6,168.6 "/>
<polygon fill="#DDDDD0" points="1661.7,154.3 1649.7,0 1654.5,0 1666.4,153.9 "/>
<polygon fill="#DDDDD0" points="1689,134.9 1679.6,0 1684.2,0 1693.7,134.5 "/>
<polygon fill="#DDDDD0" points="1487.1,210.9 1479.2,67.9 1483.9,67.6 1491.8,210.6 "/>
<polygon fill="#DDDDD0" points="1488.4,160.9 1488.2,156.1 1513.6,154.7 1513.8,159.5 "/>
<polygon fill="#DDDDD0" points="1529.7,243.9 1513.6,209.8 1502.8,0 1507.4,0 1518.3,208.6 1534,241.8 1534,241.8 "/>
<polygon fill="#DDDDD0" points="1539.4,208.9 1538.6,188.3 1543.3,188.1 1544.1,208.7 "/>
<polygon fill="#DDDDD0" points="1484.9,99.6 1484.5,94.8 1712,74.6 1712,79.3 "/>
<polygon fill="#DDDDD0" points="1484.1,85.6 1483.7,80.8 1712,59.6 1712,64.4 "/>
<polygon fill="#DDDDD0" points="1630.7,200 1630.1,195.3 1712,183.2 1712,188.3 "/>
<polygon fill="#DDDDD0" points="1711.9,296 1651.2,196.3 1643.6,171.9 1648.1,170.4 1655.5,194.3 1712,286.9 "/>
<polygon fill="#DDDDD0" points="1712,235.1 1662.8,158.2 1666.8,155.6 1712,226.5 1712,231 "/>
<polygon fill="#DDDDD0" points="1649.8,181 1649,176.3 1712,166.7 1712,171.5 "/>
<polygon fill="#DDDDD0" points="1688.6,173.2 1673.9,150.2 1677.9,147.7 1692.6,170.7 "/>
<polygon fill="#DDDDD0" points="1712,183.2 1685.8,143.1 1689.8,140.5 1712,174.7 1712,179.1 "/>
<polygon fill="#DDDDD0" points="1699.7,558.5 1674.8,384.6 1679.5,383.9 1704.4,557.8 "/>
<polygon fill="#DDDDD0" points="1439.9,342.7 1439.3,338 1712,299.1 1712,303.9 "/>
<polygon fill="#DDDDD0" points="1416.6,297.5 1415.9,292.8 1712,251 1712,256 "/>
<polygon fill="#DDDDD0" points="1493.8,453.3 1491.5,449.2 1528.7,428.2 1531,432.3 "/>
<polygon fill="#DDDDD0" points="1523.6,418.7 1429.3,440.1 1429.3,440.1 1428.2,435.4 1522.6,414 1712,371.8 1712,376.5 "/>
<polygon fill="#DDDDD0" points="1478,417.5 1477.2,412.8 1516.8,406.1 1517.6,410.8 "/>
<polygon fill="#DDDDD0" points="1468.2,399.9 1467.6,395.2 1712,360.6 1712,365.4 "/>
<polygon fill="#DDDDD0" points="1462.3,386 1461.6,381.3 1712,344.9 1712,349.8 "/>
<polygon fill="#DDDDD0" points="1454.2,372 1453.5,367.3 1712,328.9 1712,333.7 "/>
<polygon fill="#DDDDD0" points="1445.9,358.1 1445.2,353.4 1712,314.4 1712,319.2 "/>
<polygon fill="#DDDDD0" points="1523.5,415.5 1509.2,318.9 1432.8,331.2 1432.1,326.5 1513.2,313.4 1528.2,414.8 1528.2,414.8 "/>
<polygon fill="#DDDDD0" points="1506.5,307 1493.4,212.5 1498.2,211.8 1511.2,306.3 "/>
<polygon fill="#DDDDD0" points="1424.5,315.3 1423.8,310.6 1462.6,304.3 1463.3,309 "/>
<polygon fill="#DDDDD0" points="1510,301.1 1509.3,296.4 1712,266.6 1712,271.3 "/>
<polygon fill="#DDDDD0" points="1592.1,553 1582.9,470.2 1546,207.4 1550.7,206.7 1587.6,469.6 1596.9,552.5 "/>
<polygon fill="#DDDDD0" points="1588.5,400.9 1585.3,380.3 1590,379.6 1593.2,400.2 "/>
<polygon fill="#DDDDD0" points="1603.9,398.1 1600.7,379.5 1605.4,378.7 1608.6,397.3 "/>
<polygon fill="#DDDDD0" points="1617.4,396.1 1613,363.2 1617.7,362.6 1622.1,395.5 "/>
<polygon fill="#DDDDD0" points="1563.4,309 1562.8,304.3 1712,282.8 1712,287.5 "/>
<polygon fill="#DDDDD0" points="1560.4,433 1553.6,386.6 1558.3,385.9 1565.1,432.3 "/>
<polygon fill="#DDDDD0" points="1542.9,434.9 1536.6,389.4 1541.3,388.7 1547.6,434.3 "/>
<polygon fill="#DDDDD0" points="1534.9,439.3 1534.3,434.6 1712,409 1712,414 "/>
<polygon fill="#DDDDD0" points="1579.3,417.9 1578.6,413.2 1712,394.2 1712,398.9 "/>
<polygon fill="#DDDDD0" points="1476.1,465.1 1475.4,460.4 1712,427.9 1712,432.5 "/>
<polygon fill="#DDDDD0" points="1508.3,459.4 1490.9,424.6 1495.2,422.4 1512.6,457.3 "/>
<path fill="#DDDDD0" d="M1473.7,448.2c-3.7-2.1-5.3-6.4-6.4-10l0,0c-1.1-3.6-1.5-6.8-1.5-6.9l0,0v0l4.7-0.6c0,0,0.1,0.7,0.3,1.8l0,0
	c0.2,1.1,0.6,2.7,1,4.3l0,0c0.9,3.2,2.7,6.5,4.2,7.2l0,0L1473.7,448.2L1473.7,448.2z"/>
<polygon fill="#DDDDD0" points="1434.6,470 1432.4,465.8 1484,438.4 1486.2,442.6 "/>
<polygon fill="#DDDDD0" points="1466.1,489.8 1439.8,436.8 1444.1,434.7 1470.3,487.7 "/>
<polygon fill="#DDDDD0" points="1482.7,487.3 1467.1,450.6 1471.5,448.7 1487,485.4 "/>
<path fill="#DDDDD0" d="M1459.5,493.9c-5.5-0.3-10.4-3.5-14.8-7.7l0,0c-4.4-4.3-8.3-9.8-11.7-15.2l0,0
	c-6.7-10.9-11.1-21.5-11.1-21.6l0,0l0,0l4.4-1.8c0,0,0.6,1.4,1.7,3.8l0,0c1.1,2.4,2.7,5.7,4.6,9.4l0,0c3.9,7.4,9.4,16.2,15.4,22l0,0
	c4,3.9,8.1,6.3,11.7,6.4l0,0L1459.5,493.9L1459.5,493.9z"/>
<polygon fill="#DDDDD0" points="1503.8,599.7 1439.5,482.5 1443.6,480.2 1508,597.4 "/>
<polygon fill="#DDDDD0" points="1369.8,475.4 1369.2,470.7 1431.4,463 1432,467.8 "/>
<polygon fill="#DDDDD0" points="1376.5,490 1376,485.3 1440.4,477.7 1441,482.4 "/>
<path fill="#DDDDD0" d="M1344.2,510.3l-0.2,0c0,0-0.8-0.1-2.2-0.1l0,0c-5.3,0-18.4,1.2-26.6,11.5l0,0
	c-8.5,10.6-96.3,126.8-139.5,184.1l0,0c-14.4,19.1-23.9,31.7-23.9,31.7l0,0l-3.8-2.9c0,0,152-201.6,163.5-216l0,0
	c9.8-12.1,24.4-13.2,30.3-13.3l0,0c1.2,0,2,0,2.4,0.1l0,0l92.8-10.3l0,0l0.5,4.7L1344.2,510.3L1344.2,510.3z"/>
<polygon fill="#DDDDD0" points="1193.3,702 1189.6,699 1332.4,520.7 1336.1,523.6 "/>
<polygon fill="#DDDDD0" points="1342.1,533.2 1221.7,686.9 1218,684 1339.1,529.3 1369.1,515.8 1342,459.4 1346.3,457.3 
	1375.5,518.2 "/>
<polygon fill="#DDDDD0" points="1381.6,503.7 1358.7,455 1363,453 1385.9,501.7 "/>
<polygon fill="#DDDDD0" points="1409.3,501 1384.8,449.1 1389.1,447 1413.6,498.9 "/>
<path fill="#DDDDD0" d="M1207.4,574.4c-4.9,0-8.9-4-8.9-8.9l0,0c0-4.9,4-8.9,8.9-8.9l0,0c4.9,0,8.9,4,8.9,8.9l0,0
	C1216.3,570.4,1212.3,574.4,1207.4,574.4L1207.4,574.4z M1207.4,569.7c2.3,0,4.2-1.9,4.2-4.2l0,0c0-2.3-1.9-4.2-4.2-4.2l0,0
	c-2.3,0-4.2,1.9-4.2,4.2l0,0C1203.2,567.8,1205.1,569.7,1207.4,569.7L1207.4,569.7z"/>
<path fill="#DDDDD0" d="M1275.6,475.4l-0.2,0c0,0-0.1,0-0.3,0l0,0c-0.3,0-0.7,0.1-1.2,0.2l0,0c-1,0.2-2.4,0.6-4.1,1.3l0,0
	c-3.2,1.4-7.1,4-10,8.8l0,0c-6.4,10.8-45.9,74.9-45.9,74.9l0,0l-4-2.5c0,0,9.9-16,20.6-33.4l0,0c10.7-17.4,22.2-36.1,25.3-41.4l0,0
	c6.6-11,17.4-12.5,19.1-12.6l0,0l136.4-30.5l1,4.6L1275.6,475.4L1275.6,475.4z"/>
<polygon fill="#DDDDD0" points="1382,588.9 1320.7,463.8 1324.9,461.7 1386.3,586.9 "/>
<polygon fill="#DDDDD0" points="1338.1,533.9 1304.1,468.6 1308.3,466.4 1342.3,531.7 "/>
<polygon fill="#DDDDD0" points="1315.3,482.5 1271.8,552.3 1267.7,549.8 1312.1,478.6 1326.8,473.5 1326.8,473.5 1328.3,478 "/>
<path fill="#DDDDD0" d="M1555.6,501.5c-80.6,12-162.5,24.2-166.7,24.9l0,0c-2.5,0.5-3.5,1.4-4.2,2.3l0,0c-0.6,0.9-0.8,2.1-0.8,3l0,0
	c0,0.4,0,0.8,0.1,1l0,0c0,0,0,0.1,0,0.1l0,0l25.2,51.2l-4.3,2.1l-25.4-51.7l-0.1-0.2c0-0.1-0.3-1.1-0.3-2.5l0,0
	c0-1.5,0.3-3.6,1.6-5.6l0,0c1.3-2,3.8-3.7,7.3-4.3l0,0c8.9-1.6,323.8-48.4,323.9-48.4v1.9v3C1712,478.4,1636.3,489.5,1555.6,501.5
	L1555.6,501.5z M1409.3,584.1L1409.3,584.1L1409.3,584.1L1409.3,584.1L1409.3,584.1z"/>
<polygon fill="#DDDDD0" points="1450.5,578.7 1420.1,519.7 1424.3,517.5 1454.8,576.5 "/>
<path fill="#DDDDD0" d="M1370.1,588.5L1370.1,588.5L1370.1,588.5L1370.1,588.5L1370.1,588.5z M1365.8,590.5l-20.3-42.2l-90.5-56.7
	l2.5-4l91.6,57.4l20.9,43.4L1365.8,590.5L1365.8,590.5z"/>
<path fill="#DDDDD0" d="M1348.8,548.7l-115.6,148l-160.7,204l-3.7-2.9l160.7-204l116.4-149.1l35.1-11.3l1.5,4.5L1348.8,548.7
	L1348.8,548.7z M1072.5,900.7L1072.5,900.7L1072.5,900.7L1072.5,900.7L1072.5,900.7z"/>
<polygon fill="#DDDDD0" points="1385.7,541.9 1385,537.2 1712,487.9 1712,492.8 "/>
<polygon fill="#DDDDD0" points="1357.1,565.3 1113.3,873 1109.5,870.1 1354.2,561.3 1388.5,548.4 1390.1,552.9 "/>
<polygon fill="#DDDDD0" points="1122,881.7 1118.3,878.8 1252.1,712 1255.8,715 "/>
<polygon fill="#DDDDD0" points="1088.3,858.3 1084.6,855.4 1211.3,692.2 1215,695.1 "/>
<polygon fill="#DDDDD0" points="1092.7,828.4 1088.9,825.5 1176.8,711.6 1180.6,714.5 "/>
<polygon fill="#DDDDD0" points="1148.9,878.6 1145.2,875.6 1266.7,723.5 1270.4,726.4 "/>
<polygon fill="#DDDDD0" points="1311.3,507.6 1301.4,502 1303.8,497.9 1313.7,503.4 "/>
<polygon fill="#DDDDD0" points="1186.6,658.9 1182.6,656.4 1301.4,465.8 1305.4,468.3 "/>
<polygon fill="#DDDDD0" points="1061.2,829.4 1057.1,826.9 1279.6,469.8 1283.6,472.3 "/>
<polygon fill="#DDDDD0" points="1188.4,682.6 1162.4,666 1164.9,662 1191,678.6 "/>
<polygon fill="#DDDDD0" points="1180,693.8 1153.7,678.3 1156.2,674.2 1182.4,689.7 "/>
<polygon fill="#DDDDD0" points="1304,578.3 1280.3,560.5 1232.4,528.9 1232.4,528.9 1235,524.9 1283,556.6 1306.8,574.5 "/>
<polygon fill="#DDDDD0" points="1327.2,596.8 1317.3,588.5 1320.4,584.9 1330.3,593.2 "/>
<polygon fill="#DDDDD0" points="1299.6,636.1 1212.9,571.2 1215.7,567.4 1302.4,632.3 "/>
<polygon fill="#DDDDD0" points="1262.3,585.5 1240.8,571.7 1243.3,567.7 1264.9,581.5 "/>
<polygon fill="#DDDDD0" points="1271.2,574 1247.9,559 1250.4,555 1273.8,570.1 "/>
<polygon fill="#DDDDD0" points="1270.6,670.2 1225.2,633 1194.1,614.1 891.6,427.9 894.1,423.9 1196.6,610 1228,629.1 1273.6,666.5 
	1273.6,666.5 "/>
<polygon fill="#DDDDD0" points="1199.6,563.4 958.1,415.2 960.6,411.2 1202.1,559.3 "/>
<polygon fill="#DDDDD0" points="910.2,389.4 895.9,362.8 900.1,360.6 914.4,387.1 "/>
<polygon fill="#DDDDD0" points="951.6,364.4 778.6,318 779.9,313.5 952.9,359.8 "/>
<polygon fill="#DDDDD0" points="1035.7,842.2 1031.7,839.6 1202.7,569.7 1206.7,572.3 "/>
<polygon fill="#DDDDD0" points="1009.3,851.2 1005.3,848.6 1191.6,556 1195.6,558.5 "/>
<polygon fill="#DDDDD0" points="997.1,843.8 993.1,841.2 1177.9,548.1 1181.9,550.6 "/>
<polygon fill="#DDDDD0" points="979,846.5 975,843.9 1164.7,540.2 1168.7,542.7 "/>
<polygon fill="#DDDDD0" points="987.1,802 983.1,799.5 1152.5,531.2 1156.6,533.7 "/>
<polygon fill="#DDDDD0" points="963,817 1009.2,849.6 1006.5,853.5 956.6,818.3 1139.3,522.2 1143.4,524.7 "/>
<path fill="#DDDDD0" d="M1037.7,840.3L902,751.9l-6.2,11.5l-4.2-2.3l8.6-16l139.9,91.2L1037.7,840.3L1037.7,840.3z M895.9,763.3
	L895.9,763.3L895.9,763.3L895.9,763.3L895.9,763.3z"/>
<polygon fill="#DDDDD0" points="908,790.9 903.9,788.4 919.2,763.1 923.3,765.5 "/>
<polygon fill="#DDDDD0" points="919.5,760.3 915.5,757.7 1086.6,490 1090.6,492.5 "/>
<polygon fill="#DDDDD0" points="935.4,771.4 931.4,768.9 1100.8,499.5 1104.8,502 "/>
<polygon fill="#DDDDD0" points="948.1,779.3 944,776.8 1112.9,509.5 1117,512.1 "/>
<polygon fill="#DDDDD0" points="915.4,859.4 891.7,917.8 887.3,916 911.2,857.2 1125.1,517.4 1125.1,517.4 1129.1,520 "/>
<polygon fill="#DDDDD0" points="959.1,674.7 955.1,672.2 1072.8,484.2 1076.9,486.7 "/>
<polygon fill="#DDDDD0" points="957.6,649.4 953.5,646.9 1059.6,476.2 1063.7,478.8 "/>
<polygon fill="#DDDDD0" points="828.2,825.3 824.2,822.7 1048,467.3 1052,469.8 "/>
<polygon fill="#DDDDD0" points="920.1,651.5 916.1,649 1034.3,459.3 1038.3,461.9 "/>
<polygon fill="#DDDDD0" points="882.1,682.1 878.1,679.6 1022.7,451.9 1026.7,454.5 "/>
<polygon fill="#DDDDD0" points="895.8,636.2 891.8,633.6 1010.5,442.4 1014.6,445 "/>
<polygon fill="#DDDDD0" points="865.8,673 813.6,773.9 809.3,771.7 861.6,670.8 983,427.8 983,427.8 987.2,430 "/>
<polygon fill="#DDDDD0" points="836.8,694.1 832.6,691.9 971.4,420.4 975.6,422.6 "/>
<polygon fill="#DDDDD0" points="893.1,658.6 877.3,649.6 879.7,645.5 895.5,654.5 "/>
<polygon fill="#DDDDD0" points="887.4,670.8 869.4,661.3 871.7,657.1 889.6,666.6 "/>
<polygon fill="#DDDDD0" points="972.3,508.6 953.3,497.5 955.7,493.4 974.7,504.5 "/>
<polygon fill="#DDDDD0" points="979.2,497 957.6,485.4 959.8,481.2 981.5,492.8 "/>
<polygon fill="#DDDDD0" points="978.2,478.2 974.1,475.8 996.8,437.2 1000.9,439.6 "/>
<polygon fill="#DDDDD0" points="1165.1,882.5 1161.4,879.6 1274.8,734 1243.8,705.9 1197,671.2 963.3,522.3 845.6,453.7 
	845.6,453.7 848,449.6 965.8,518.3 1199.7,667.3 1246.8,702.2 1281.3,733.4 "/>
<path fill="#DDDDD0" d="M963.7,392.9c-0.5,1.9-0.9,4.4-1.1,6.9l0,0c-0.5,5-0.5,10.2-0.5,11.7l0,0c0,0.3,0,0.4,0,0.4l0,0l0,0.6
	l-160.6,317l-33.3,67.6l-16.8,30.5l-54.8,154l-4.5-1.6l55-154.4l17-30.8l33.2-67.6l160.1-316c0-2.6,0.1-12.9,1.8-19.7l0,0
	c0.7-2.3,1.3-4.3,3.1-5.8l0,0l2.8,3.8C965,389.7,964.1,391,963.7,392.9L963.7,392.9z"/>
<polygon fill="#DDDDD0" points="738.1,822.3 680.1,982.7 675.7,981.1 733.8,820.4 793,702 797.2,704.1 "/>
<polygon fill="#DDDDD0" points="805.1,688.3 800.9,686.1 932.8,427.3 937.1,429.5 "/>
<polygon fill="#DDDDD0" points="791.9,680.9 787.7,678.7 917,425.2 921.2,427.4 "/>
<polygon fill="#DDDDD0" points="781.9,668.2 777.7,666 836.3,555.1 840.5,557.3 "/>
<polygon fill="#DDDDD0" points="836.2,554.1 832,551.9 901,419.5 905.2,421.7 "/>
<polygon fill="#DDDDD0" points="824.1,548.8 819.9,546.7 872.1,436.3 876.4,438.4 "/>
<polygon fill="#DDDDD0" points="809.3,540.4 805.1,538.2 851.8,447.8 856,449.9 "/>
<polygon fill="#DDDDD0" points="795.6,534 791.4,531.9 826.7,462.2 831,464.3 "/>
<polygon fill="#DDDDD0" points="759.2,613.8 754.9,611.7 791.9,536.1 796.2,538.2 "/>
<polygon fill="#DDDDD0" points="680.5,802.4 676.3,800.2 806.7,541.9 810.9,544.1 "/>
<path fill="#DDDDD0" d="M749.2,698.3l-4.2-2.1l68.6-135.6l-9.7-4.4l1.9-4.3l14.3,6.4L749.2,698.3L749.2,698.3z M749.2,698.3
	L749.2,698.3L749.2,698.3L749.2,698.3L749.2,698.3z"/>
<polygon fill="#DDDDD0" points="652,791.3 647.8,789.1 800.3,485.9 804.6,488.1 "/>
<polygon fill="#DDDDD0" points="720.6,686.8 716.5,684.5 737.6,646.4 741.7,648.7 "/>
<polygon fill="#DDDDD0" points="665.2,795.5 661,793.3 700.1,716.8 704.3,718.9 "/>
<polygon fill="#DDDDD0" points="709.6,810.8 705.3,808.7 766,687.2 770.3,689.3 "/>
<polygon fill="#DDDDD0" points="694.8,805.5 690.5,803.4 725.9,731 730.2,733.1 "/>
<path fill="#DDDDD0" d="M921.2,1161.7L735.8,997.2c-5.2-2-58.4-22.1-63.5-24.2l0,0c-3.6-1.5-5.3-4.7-6.2-7.2l0,0
	c-0.9-2.6-1-4.7-1.1-4.9l0,0l0-0.5l54.6-145.3l59.7-120h0l4.3,2.1L723.9,817l-54.1,144.1c0,0.2,0,0.3,0.1,0.6l0,0
	c0.1,0.7,0.3,1.6,0.7,2.6l0,0c0.7,2,1.9,3.8,3.5,4.4l0,0c2.6,1,18.6,7.1,33.9,12.9l0,0c15.3,5.8,29.9,11.3,30,11.4l0,0l0.4,0.2
	l186.1,165.1L921.2,1161.7L921.2,1161.7z"/>
<path fill="#DDDDD0" d="M765.1,832.4l-54.8,151.4l-4.5-1.6l55-151.7L822,716.2l4.2,2.2L765.1,832.4L765.1,832.4z M710.2,983.8
	L710.2,983.8L710.2,983.8L710.2,983.8L710.2,983.8z"/>
<polygon fill="#DDDDD0" points="839.9,832.1 835.8,829.7 872.7,766.8 876.8,769.2 "/>
<polygon fill="#DDDDD0" points="810,917.2 805.5,915.6 831.9,840.1 836.4,841.7 "/>
<polygon fill="#DDDDD0" points="791.5,914 787,912.5 818.2,823.7 822.7,825.3 "/>
<polygon fill="#DDDDD0" points="813.5,820 809.4,817.5 862.7,730.8 866.8,733.3 "/>
<polygon fill="#DDDDD0" points="825.7,780.2 821.5,778 848.4,727.8 852.6,730 "/>
<polygon fill="#DDDDD0" points="799.2,809.9 795.1,807.5 813.6,775.8 817.7,778.2 "/>
<polygon fill="#DDDDD0" points="773,907.2 768.6,905.6 802.9,813.7 807.3,815.3 "/>
<polygon fill="#DDDDD0" points="724.5,989.1 720,987.4 788.1,805.2 792.6,806.9 "/>
<polygon fill="#DDDDD0" points="822,985.3 761,1055.3 757.4,1052.2 817.8,982.8 868.3,842.2 872.8,843.8 "/>
<polygon fill="#DDDDD0" points="807.3,979.4 770,1022.6 766.4,1019.5 802.9,977.1 808,956.1 812.6,957.3 "/>
<polygon fill="#DDDDD0" points="825.3,931.7 820.7,930.2 851.4,834.4 855.9,835.8 "/>
<polygon fill="#DDDDD0" points="743.7,987.8 739.3,986.1 769.7,905.4 774.1,907 "/>
<polygon fill="#DDDDD0" points="761.4,979 756.9,977.5 780.7,908.8 785.2,910.3 "/>
<polygon fill="#DDDDD0" points="783.7,968.5 779.2,967.1 796,914.1 800.5,915.6 "/>
<polygon fill="#DDDDD0" points="623.1,946.4 618.7,944.5 681,803 685.3,804.9 "/>
<path fill="#DDDDD0" d="M1096.8,1074l-119.2-41.5l-17.6,3.8l-11.1,28.9l-4.4-1.7l12.1-31.3l21.4-4.6l120.5,41.9L1096.8,1074
	L1096.8,1074z M948.8,1065.2L948.8,1065.2L948.8,1065.2L948.8,1065.2L948.8,1065.2z"/>
<polygon fill="#DDDDD0" points="975.3,1040 970.7,1039 972.8,1030 977.4,1031.1 "/>
<polygon fill="#DDDDD0" points="608.6,771.6 609.1,775.6 580.4,860.2 580.4,860.1 575.9,858.6 604.2,775.2 603.7,770.7 736.9,511.8 
	741.1,514 "/>
<polygon fill="#DDDDD0" points="583,896.7 578.5,895 621.3,779.9 625.8,781.5 "/>
<polygon fill="#DDDDD0" points="757.8,515.3 621.4,779.7 617.2,777.5 753.2,513.7 755.8,500.8 760.5,501.7 "/>
<polygon fill="#DDDDD0" points="635.1,784.9 630.9,782.8 782.9,485.8 787.1,488 "/>
<polygon fill="#DDDDD0" points="714.5,834.1 677.6,819.9 679.3,815.4 716.2,829.7 "/>
<polygon fill="#DDDDD0" points="702.4,864.8 664.9,850.5 666.6,846.1 704.1,860.3 "/>
<polygon fill="#DDDDD0" points="691.8,892.8 651.2,876.9 652.9,872.5 693.5,888.3 "/>
<polygon fill="#DDDDD0" points="680.7,922.9 640.1,906.5 641.8,902.1 682.5,918.5 "/>
<polygon fill="#DDDDD0" points="608.3,871.8 596.2,904.1 591.7,902.4 603.9,870.2 634.5,786.2 639,787.8 "/>
<polygon fill="#DDDDD0" points="622.5,910 618.2,908.1 667.3,798.2 671.6,800.1 "/>
<polygon fill="#DDDDD0" points="608.8,908.4 604.4,906.5 652.5,791.4 656.9,793.2 "/>
<polygon fill="#DDDDD0" points="623.1,851.8 618.7,850.1 636.1,804.7 640.5,806.4 "/>
<path fill="#DDDDD0" d="M787.9,959.5c-25.5,10.6-52.7,22-58.2,25l0,0c-3.6,2-4.5,4.6-4.5,7.8l0,0c0,3.9,1.9,8.3,2.8,10.1l0,0
	c0.1,0.3,0.3,0.5,0.3,0.6l0,0l85.8,79l-3.2,3.5l-86.3-79.5l-0.2-0.3c-0.1-0.2-3.9-6.4-4-13.5l0,0c-0.1-4.3,1.8-9.2,7-12l0,0
	c6.1-3.3,33-14.6,58.6-25.3l0,0c25.6-10.6,49.7-20.4,49.7-20.4l0,0l1.8,4.4C837.5,939.1,813.4,948.9,787.9,959.5L787.9,959.5z
	 M814.1,1082.1L814.1,1082.1L814.1,1082.1L814.1,1082.1L814.1,1082.1z"/>
<polygon fill="#DDDDD0" points="747.8,1024.2 744.2,1021 788.6,971.4 792.1,974.5 "/>
<polygon fill="#DDDDD0" points="943.8,1096.6 900.3,1051.5 888.3,1046.3 824.7,988 828,984.5 890.9,1042.2 903.1,1047.5 
	947.2,1093.3 "/>
<polygon fill="#DDDDD0" points="782.6,1122.9 779,1119.8 842.9,1047.4 846.5,1050.6 "/>
<polygon fill="#DDDDD0" points="812.6,1059.7 809.2,1056.3 829.6,1036.1 832.9,1039.5 "/>
<polygon fill="#DDDDD0" points="787.3,1070.2 783.8,1066.9 849.5,995 853,998.2 "/>
<polygon fill="#DDDDD0" points="793.2,1043.2 789.6,1040.1 832.3,990.4 835.9,993.5 "/>
<polygon fill="#DDDDD0" points="848.8,1181.7 785,1118.8 788.3,1115.4 852.2,1178.3 "/>
<polygon fill="#DDDDD0" points="800.5,1127.2 797,1124 878.3,1033.2 881.8,1036.3 "/>
<polygon fill="#DDDDD0" points="800.5,1148.3 797,1145.1 864.6,1069.2 868.1,1072.4 "/>
<polygon fill="#DDDDD0" points="968,1075 902.5,1052.3 804.8,1166.8 801.2,1163.7 900.9,1046.8 969.5,1070.5 969.5,1070.5 "/>
<polygon fill="#DDDDD0" points="816.9,1174.7 813.4,1171.5 917.9,1054.3 921.4,1057.5 "/>
<polygon fill="#DDDDD0" points="825.3,1187.4 821.8,1184.2 934.8,1060.1 938.3,1063.3 "/>
<polygon fill="#DDDDD0" points="846.5,1189 842.9,1185.8 950.1,1066.4 953.6,1069.6 "/>
<path fill="#DDDDD0" d="M968.7,1074.5l-80,89.6l-3.5-3.2l79.4-88.9l10.2-29L550.4,888l1.6-4.5l428.7,156.6L968.7,1074.5
	L968.7,1074.5z M888.7,1164.1L888.7,1164.1L888.7,1164.1L888.7,1164.1L888.7,1164.1z"/>
<polygon fill="#DDDDD0" points="896.1,1176.5 805.6,1095.7 808.8,1092.1 895.7,1169.8 912.1,1151.5 912.1,1151.5 915.6,1154.6 "/>
<polygon fill="#DDDDD0" points="938.6,1143.7 776,990.5 779.3,987.1 941.9,1140.2 "/>
<polygon fill="#DDDDD0" points="935.1,1060.9 930.6,1059.3 995,883.4 999.5,885 "/>
<polygon fill="#DDDDD0" points="918.7,1054.7 914.3,1052.8 936,1003.7 940.3,1005.6 "/>
<polygon fill="#DDDDD0" points="900.2,1048.8 895.8,1047.1 963.4,880.2 967.8,881.9 "/>
<polygon fill="#DDDDD0" points="935.6,931 931.1,929.4 949.4,878.7 953.9,880.3 "/>
<polygon fill="#DDDDD0" points="920.3,926.8 915.9,925.1 942.7,855.6 947.1,857.3 "/>
<polygon fill="#DDDDD0" points="864.4,998 859.9,996.5 887.3,915.1 891.8,916.7 "/>
<polygon fill="#DDDDD0" points="833.7,988.6 829.3,986.9 882.1,846.4 886.5,848.1 "/>
<polygon fill="#DDDDD0" points="850.6,995.4 846.1,993.8 902.7,830.5 907.2,832.1 "/>
<polygon fill="#DDDDD0" points="953.2,1003.7 910.4,988.4 912,983.9 954.8,999.2 "/>
<polygon fill="#DDDDD0" points="963.2,976.8 921,962 922.5,957.5 964.8,972.3 "/>
<polygon fill="#DDDDD0" points="964.1,941 959.7,939.4 968.6,915.6 973.1,917.3 "/>
<polygon fill="#DDDDD0" points="975.7,908.8 971.2,907.2 981.3,878.2 985.8,879.7 "/>
<polygon fill="#DDDDD0" points="1002.6,918.9 998.2,917.1 1006.7,896 1011.1,897.8 "/>
<polygon fill="#DDDDD0" points="1035.5,954.6 1024.4,950.3 1026.1,945.9 1037.2,950.1 "/>
<path fill="#DDDDD0" d="M1637.9,1255c0,0-0.1-0.4-4.9-5.3l0,0c-4.8-4.9-10.1-9.5-13.6-12.3l0,0c-2.3-1.9-3.7-3-3.8-3.1l0,0
	c0,0-7.4-5.9-20.3-16.3l0,0c-13-10.4-31.5-25.2-53.8-43.1l0,0c-44.6-35.7-104.3-83.5-164.7-131.7l0,0
	c-120.7-96.5-244.2-195.1-254.6-202.9l0,0c-8-6.1-21.6-8.2-34.2-8.2l0,0c-12,0-23.1,1.7-27.8,2.6l0,0c-0.9,0.2-1.6,0.3-2,0.4l0,0
	l-128.3,61.1L823.4,951c-2.8,1.7-49.8,30.4-79.4,39.9l0,0c-21.7,7-65.3,26.9-89.5,39.2l0,0c-8,4.1-14.1,7.4-16,8.8l0,0
	c-5.2,3.7-21.1,12.9-36.1,21.3l0,0c-14.9,8.4-28.7,15.9-28.7,15.9l0,0l-0.3,0.1l-0.3,0.1c0,0-90.8,33.8-150.6,53.4l0,0
	c-40.5,13.3-66.9,15.5-80.1,15.5l0,0c-6.4,0-9.7-0.5-9.9-0.6l0,0h0l1.3-7.8c0,0,0.1,0,0.4,0.1l0,0c0.3,0,0.9,0.1,1.6,0.2l0,0
	c1.4,0.1,3.6,0.2,6.6,0.2l0,0c12.3,0,37.9-2.1,77.7-15.1l0,0c29.8-9.7,67.3-23.1,97.5-34l0,0c28.3-10.2,49.9-18.3,52.5-19.2l0,0
	c1.9-1.1,14.6-8,28.3-15.8l0,0c14.8-8.3,31.1-17.7,35.4-20.8l0,0c2.9-2.1,8.8-5.3,17-9.5l0,0c8.2-4.2,18.5-9.1,29.4-14.2l0,0
	c21.9-10.1,46.2-20.6,61.3-25.5l0,0c21.5-6.9,54.7-25.5,69.7-34.4l0,0c5-3,8.1-4.8,8.1-4.8l0,0l0.1-0.1l106.8-55l129.3-61.5l0.5-0.1
	c0.2,0,14.9-3.2,31.8-3.2l0,0c13.4,0.1,28.3,1.9,38.9,9.7l0,0c21.3,16,493.6,394.1,493.6,394l0,0c0.1,0.1,6.2,4.7,13,11.1l0,0
	c6.8,6.4,13,13.8,14.1,15.8L1637.9,1255L1637.9,1255z"/>
<path fill="#DDDDD0" d="M1708.5,1232.4c-9.2,9-24.2,18-46.3,18l0,0c-10.1,0-21.6-1.8-34.7-6.3l0,0l2.5-7.5
	c12.4,4.2,23.1,5.9,32.2,5.9l0,0c18.7,0,31-6.9,39.2-14.2l0,0c5.2-4.7,8.5-9.5,10.5-12.8c0,0,0,12.9,0,13.4
	C1710.9,1230,1709.8,1231.2,1708.5,1232.4L1708.5,1232.4z"/>
<polygon fill="#DDDDD0" points="1186,885.6 1182.2,882.8 1259.7,778.1 1173.8,712.3 913.5,544.4 794.6,484.4 735.6,468.3 
	595.9,489.2 595.2,484.5 735.8,463.5 796.3,479.9 915.8,540.3 1176.5,708.4 1266.3,777.2 "/>
<polygon fill="#DDDDD0" points="1182.2,907.9 1178.6,904.9 1245.6,824.1 1249.3,827.1 "/>
<polygon fill="#DDDDD0" points="1192.8,920 1189.1,917.1 1254.6,834.7 1258.3,837.6 "/>
<polygon fill="#DDDDD0" points="1207.6,928.5 1203.9,925.5 1269.9,843.1 1273.6,846.1 "/>
<polygon fill="#DDDDD0" points="1565.9,1255 1328.4,1064.6 1182.7,954.2 1182.7,954.2 1185.5,950.5 1331.3,1060.9 1573.4,1255 
	1569.8,1255 "/>
<polygon fill="#DDDDD0" points="1200.2,963.3 1196.5,960.4 1280.4,854.7 1284.1,857.7 "/>
<polygon fill="#DDDDD0" points="1206.6,979.7 1202.8,976.8 1292,861.1 1295.8,864 "/>
<polygon fill="#DDDDD0" points="1225,980.7 1221.3,977.8 1303.6,872.2 1307.4,875.1 "/>
<polygon fill="#DDDDD0" points="1236.1,989.2 1232.4,986.3 1314.7,880.6 1318.5,883.6 "/>
<polygon fill="#DDDDD0" points="1249.3,999.2 1245.6,996.3 1326.9,891.7 1330.6,894.6 "/>
<polygon fill="#DDDDD0" points="1256.2,1017.7 1252.4,1014.8 1339,900.2 1342.8,903.1 "/>
<polygon fill="#DDDDD0" points="1274.1,1019.3 1270.4,1016.4 1352.2,909.7 1356,912.6 "/>
<polygon fill="#DDDDD0" points="1280.5,1036.2 1276.7,1033.3 1334.2,957.2 1338,960.1 "/>
<polygon fill="#DDDDD0" points="1234.6,1002.3 1230.7,999.6 1236,992.2 1239.9,994.9 "/>
<polygon fill="#DDDDD0" points="1311.1,1047.3 1307.3,1044.4 1389.1,938.2 1392.9,941.1 "/>
<polygon fill="#DDDDD0" points="1351.2,1017.2 1347.4,1014.3 1398.6,946.7 1402.4,949.6 "/>
<polygon fill="#DDDDD0" points="1291,1112.3 1287.3,1109.3 1712,577.3 1712,584.9 "/>
<polygon fill="#DDDDD0" points="1346.4,1073.2 1342.7,1070.2 1712,600.7 1712,608.5 "/>
<path fill="#DDDDD0" d="M1609.8,765.8l-281.3,356.5l-3.7-2.9l281.3-356.5L1712,627.2v7.7L1609.8,765.8L1609.8,765.8z M1328.5,1122.3
	L1328.5,1122.3L1328.5,1122.3L1328.5,1122.3L1328.5,1122.3z"/>
<polygon fill="#DDDDD0" points="1334.8,1136.1 1331.1,1133.1 1448.8,986.8 1452.5,989.8 "/>
<polygon fill="#DDDDD0" points="1345.9,1148.2 1342.2,1145.3 1458.3,996.8 1462,999.8 "/>
<polygon fill="#DDDDD0" points="1492.6,1255 1298.8,1101.6 1301.7,1097.8 1500.7,1255 1498.4,1255 "/>
<polygon fill="#DDDDD0" points="1452.1,1255 1448.8,1255 1712,922.4 1712,930.2 1454.9,1255 "/>
<polygon fill="#DDDDD0" points="1482.1,1244.3 1478.4,1241.4 1712,946.3 1712,954.1 "/>
<polygon fill="#DDDDD0" points="1493.7,1251.7 1490,1248.8 1712,973.2 1712,981.1 "/>
<polygon fill="#DDDDD0" points="1512.8,1255 1508.8,1255 1712,996.6 1712,1004.3 1514.7,1255 "/>
<polygon fill="#DDDDD0" points="1530.4,1255 1526.6,1255 1712,1021.9 1712,1029.6 1532.4,1255 "/>
<polygon fill="#DDDDD0" points="1552.2,1255 1548.9,1255 1712,1046.8 1712,1054.6 1555.3,1255 "/>
<polygon fill="#DDDDD0" points="1573.8,1255 1571.2,1255 1712,1073.4 1712,1081.2 1577,1255 "/>
<polygon fill="#DDDDD0" points="1590.2,1255 1586.9,1255 1712,1094.8 1712,1102.6 1593.3,1255 "/>
<polygon fill="#DDDDD0" points="1612.1,1255 1608.6,1255 1712,1123 1712,1130.7 1614.6,1255 "/>
<polygon fill="#DDDDD0" points="1629.2,1255 1625.7,1255 1712,1147.1 1712,1155.1 1632,1255 "/>
<path fill="#DDDDD0" d="M1661.4,1245l-0.2,0.1c0,0,0,0,0,0l0,0c0,0.1-0.1,0.1-0.2,0.3l0,0c-0.2,0.2-0.5,0.6-0.8,1.1l0,0
	c-0.6,0.9-1.2,2.2-1.2,3.8l0,0c0,1.4,0.1,2.6,1.7,4.7h-2.2h-3c0,0-1.2-2.3-1.2-4.7l0,0c0.1-4.8,2.8-7.7,3.6-8.5l0,0l54-68.9v7.7
	L1661.4,1245L1661.4,1245z"/>
<path fill="#DDDDD0" d="M1696.3,1221.2c-10,11.1-11.7,16.5-11.6,17.8l0,0c0,0.2,0,0.3,0,0.4l0,0l-0.2,0.1l0.2-0.1l-0.8,0.7l-1.2,3.5
	c-0.5,0-2.9-1.6-2.8-4.5l0,0c0.1-3.9,2.6-9.5,12.8-21l0,0c8.7-9.8,19.2-22.1,19.2-22.1v7.5
	C1711.9,1203.5,1713.7,1201.6,1696.3,1221.2L1696.3,1221.2z"/>
<polygon fill="#DDDDD0" points="1688.6,1255 1686,1255 1695.8,1242.6 1699.6,1245.6 1692.2,1255 "/>
<polygon fill="#DDDDD0" points="1432.7,1255 1428,1255 1712,897.1 1712,905.1 1434,1255 "/>
<polygon fill="#DDDDD0" points="1434.1,1232.7 1430.3,1229.8 1712,872.7 1712,880.2 "/>
<polygon fill="#DDDDD0" points="1436.2,1206.3 1432.4,1203.4 1712,847.7 1712,855.5 "/>
<polygon fill="#DDDDD0" points="1424,1195.7 1420.3,1192.8 1712,824.3 1712,832.2 "/>
<polygon fill="#DDDDD0" points="1412.4,1186.2 1408.7,1183.3 1712,800.3 1712,808.4 "/>
<polygon fill="#DDDDD0" points="1400.3,1176.7 1396.5,1173.8 1712,772.8 1712,780.7 "/>
<polygon fill="#DDDDD0" points="1418.2,1132.3 1414.5,1129.4 1712,745.8 1712,753.9 "/>
<polygon fill="#DDDDD0" points="1403.4,1122.3 1399.7,1119.4 1712,724 1712,731.8 "/>
<polygon fill="#DDDDD0" points="1363.9,1148.2 1360.1,1145.3 1712,696.4 1712,704.3 "/>
<polygon fill="#DDDDD0" points="1522.2,924.2 1518.5,921.3 1712,677.2 1712,684.9 "/>
<polygon fill="#DDDDD0" points="1511.1,914.7 1507.4,911.8 1712,653.1 1712,660.8 "/>
<polygon fill="#DDDDD0" points="1712,1135.8 1502,968.5 1504.9,964.7 1712,1129.8 1712,1132.5 "/>
<polygon fill="#DDDDD0" points="1465.5,942 1441.2,920.6 1444.3,917 1468.6,938.4 "/>
<polygon fill="#DDDDD0" points="1712,1080.2 1471.3,886.5 1474.3,882.8 1712,1074 1712,1076.5 "/>
<polygon fill="#DDDDD0" points="1712,1017.7 1491.4,844.9 1494.4,841.1 1712,1011.6 1712,1015.9 "/>
<polygon fill="#DDDDD0" points="1712,961.7 1504,796.9 1507,793.2 1712,955.6 1712,960.1 "/>
<polygon fill="#DDDDD0" points="1709.7,901.3 1538.9,765.6 1541.9,761.9 1712,897.1 1712,903 "/>
<polygon fill="#DDDDD0" points="1712,809 1581.1,799.4 1516.9,806.8 1516.4,802.1 1581,794.7 1712,804.1 1712,807.3 "/>
<polygon fill="#DDDDD0" points="1451,498.2 1374.7,529.7 1345.1,544.4 1227.5,688.5 1177.6,713.5 1071.8,831.8 1065.9,826.5 
	1172.7,707.1 1222.5,682.2 1340.1,538.1 1371.4,522.5 1448.8,490.6 1712,446.9 1712,454.9 "/>
<polygon fill="#DDDDD0" points="1604.9,203.5 1494.8,213.1 1420.5,230.5 1219.9,255 958.4,394 954.6,387 1217.5,247.3 1419.1,222.7 
	1493.6,205.3 1602,195.8 1712,113.3 1712,113.3 1712,123.2 "/>
<path fill="#DDDDD0" d="M307.7,588.1L303,588l0.4-14.8l-5.5-2.5l-5.9,172.5l-4.7-0.2l6.2-179.6l14.8,6.7L307.7,588.1L307.7,588.1z
	 M291.9,743.1L291.9,743.1L291.9,743.1L291.9,743.1z"/>
<polygon fill="#DDDDD0" points="288.3,612.7 281.7,611.9 282.3,607.2 288.9,608 "/>
<path fill="#DDDDD0" d="M334,807.8c-7.1-2.9-12.5-3.7-16.2-3.7l0,0c-4.4,0-6.5,1.1-6.8,1.2l0,0l0-0.1l0,0h0l-2.4-4.1
	c0.3-0.2,3.3-1.9,9.2-1.9l0,0c4.4,0,10.4,0.9,18,4.1l0,0L334,807.8L334,807.8z"/>
<path fill="#DDDDD0" d="M391.6,716.7c-1.5,2.2-2.3,5.1-2.6,7l0,0c-0.2,1.3-0.3,2-0.3,2l0,0l-4.7-0.3c0-0.2,0.2-4,2-8.2l0,0
	c1.7-4.1,5.4-9,12.2-9.3l0,0l0.3,4.7C395,712.9,393.1,714.5,391.6,716.7L391.6,716.7z"/>
<polygon fill="#DDDDD0" points="1428.9,102.5 1428.6,97.7 1447.4,96.7 1447.6,101.4 "/>
<path fill="#DDDDD0" d="M961.4,401.7l-0.2-3.2c11.1-0.8,26.9-4.8,26.9-4.8l0,0v0l0.8,3.1C988.8,396.8,973,400.9,961.4,401.7
	L961.4,401.7z"/>
<path fill="#DDDDD0" d="M987.1,405.3c0,0-8.3-2.3-16.3-2.3l0,0c-2.7,0-5.3,0.3-7.5,0.9l0,0l-0.9-3c2.6-0.8,5.5-1.1,8.4-1.1l0,0
	c8.5,0,17.1,2.4,17.1,2.4l0,0L987.1,405.3L987.1,405.3z"/>
<polygon fill="#DDDDD0" points="959.1,416.5 945,414 945.8,409.3 960,411.8 "/>
<polygon fill="#DDDDD0" points="957.4,399.9 949.6,385.6 953.7,383.3 961.6,397.6 "/>
<polygon fill="#DDDDD0" points="948.2,397.3 944.4,394.6 951.6,384.5 955.5,387.2 "/>
<polygon fill="#DDDDD0" points="906.5,402.9 905.7,398.2 919.9,395.9 920.7,400.6 "/>
<polygon fill="#DDDDD0" points="913.3,411.6 905,401.7 908.6,398.6 917,408.5 "/>
<polygon fill="#DDDDD0" points="909.8,417 905.8,414.4 912.7,404 916.6,406.6 "/>
<polygon fill="#DDDDD0" points="910.3,419 909.9,414.3 923.2,413.1 923.7,417.8 "/>
<polygon fill="#DDDDD0" points="1374.6,345.2 1372.4,341 1420.7,315.6 1422.9,319.8 "/>
<polygon fill="#DDDDD0" points="480.3,854.7 452.6,844.2 454.3,839.7 482,850.3 "/>
<polygon fill="#DDDDD0" points="879.4,858.9 867.5,854.8 869.1,850.3 881,854.4 "/>
<polygon fill="#DDDDD0" points="906,921.7 901.5,920 925.1,855.1 929.5,856.7 "/>
<polygon fill="#DDDDD0" points="426,337.1 425.4,332.4 463.8,327.6 464.4,332.4 "/>
<polygon fill="#DDDDD0" points="424.8,322.5 424.2,317.7 460,313 460.7,317.7 "/>
<polygon fill="#DDDDD0" points="421.5,307.8 420.9,303.1 448.2,299.5 448.8,304.2 "/>
<path fill="#DDDDD0" d="M463.4,303.9c-0.3,2.2-0.7,4.5-2.2,6.4l0,0l-3.7-2.9c0.4-0.4,1-2.3,1.2-4.1l0,0c0.2-1.8,0.3-3.6,0.3-4.5l0,0
	c0-0.3,0-0.5,0-0.5l0,0v0l4.7-0.1c0,0,0,0.2,0,0.6l0,0C463.7,299.8,463.7,301.8,463.4,303.9L463.4,303.9z"/>
<polygon fill="#DDDDD0" points="826.9,116.7 816.5,115.4 819.4,74.9 824.2,75.3 821.6,111.2 827.4,111.9 827.4,111.9 "/>
<path fill="#DDDDD0" d="M938.4,89.3l0-0.5c0.1-0.7,0.4-1.1,0.9-1.2c0.1,0,0.1,0,0.2,0c0.5,0,0.9,0.5,0.8,1.3l0,0.5l1.5,0.1l0,0.4
	l-3.4-0.3L938.4,89.3z M940,89c0.1-0.7-0.2-0.9-0.5-0.9c0,0-0.1,0-0.1,0c-0.2,0-0.5,0.2-0.6,0.8l0,0.5l1.3,0.1L940,89z"/>
<path fill="#DDDDD0" d="M940.9,87.1l1.1,0.5l0,0.4l-3.2-1.5l0-0.3l3.5-0.9l0,0.4l-1.2,0.3L940.9,87.1z M940.5,86.9l0.1-1l-1.4,0.4
	L940.5,86.9z"/>
<path fill="#DDDDD0" d="M940.8,83.8l0,0.5l1.5,0.1l0,0.4l-3.4-0.3l0-0.4l0-0.5c0.1-0.7,0.5-1.2,1.1-1.2c0.5,0,0.8,0.4,0.8,0.9
	l1.6-0.9l0,0.4L940.8,83.8z M940.5,83.8c0.1-0.7-0.3-0.9-0.5-0.9c-0.4,0-0.6,0.2-0.7,0.8l0,0.5l1.3,0.1L940.5,83.8z"/>
<path fill="#DDDDD0" d="M939.1,81.6l1.7,0.2l-1.6-1.9l0-0.4l1.4,1.6l2-1.3l0,0.5l-1.7,1.1l0.4,0.5l1.2,0.1l0,0.4l-3.4-0.3
	L939.1,81.6z"/>
<path fill="#DDDDD0" d="M939.5,77.4l0-0.5c0.1-0.7,0.4-1.1,0.9-1.2c0.1,0,0.1,0,0.2,0c0.5,0.1,0.9,0.5,0.8,1.3l0,0.5l1.5,0.1l0,0.4
	l-3.4-0.3L939.5,77.4z M941.1,77.1c0.1-0.7-0.2-0.9-0.5-0.9c0,0-0.1,0-0.1,0c-0.2,0-0.5,0.2-0.6,0.8l0,0.5l1.3,0.1L941.1,77.1z"/>
<path fill="#DDDDD0" d="M939.7,74.9l3,0.3l0.2-1.8l0.3,0l-0.2,2.1l-3.4-0.3L939.7,74.9z"/>
<polygon fill="#DDDDD0" points="1708.1,1255 1693.6,1243 1696.6,1239.3 1712,1251.8 1712,1253.2 1712,1255 "/>
<polygon fill="#DDDDD0" points="1203.6,559.8 1202.6,531.2 1205.7,531.1 1206.8,559.7 "/>
<path fill="#DDDDD0" d="M1374,438.6c-1.6,0-3.2-0.2-4.8-0.5l0,0c-6-1.3-12-2.2-17.6-2.2l0,0c-9.9,0-19,2.7-27.2,10.9l0,0
	c-7.8,7.8-18.7,9.6-29.3,9.6l0,0c-8.9,0-17.8-1.3-24.9-1.6l0,0c-0.3,0-0.7,0-1,0l0,0c-10.4-0.1-16.7,8.5-19.2,12.9l0,0
	c-0.6,1-0.9,1.8-1.1,2.1l0,0c-0.1,0.8-0.3,3-1,5.5l0,0c-1,3.1-2.8,6.7-6.7,8.2l0,0c-2.4,0.8-5.7,5.1-8.1,9.1l0,0
	c-2,3.4-3.5,6.5-3.9,7.5l0,0c0,0.1,0,0.2,0,0.2l0,0c0,3.4-1.1,19.9-20.2,30.2l0,0c-2.4,1.3-4.9,1.9-7.3,1.9l0,0
	c-10.6-0.1-20.3-10.1-28-20.4l0,0c-7.7-10.4-13.2-21.2-14.4-23.8l0,0c-0.8-2.1-6.1-7.3-11-11.4l0,0c-4-3.4-7.8-6.4-9.1-7.4l0,0
	c-0.2,0-0.4,0-0.7,0l0,0c-4.4,0-18.7-1.2-27.1-15.9l0,0c-4.6-8.1-15.1-10.6-25.9-10.6l0,0c-9.1,0-18.2,1.7-23.1,2.6l0,0
	c-0.9,0.2-1.9,0.2-2.9,0.2l0,0c-6.4,0-15.3-2.8-23.2-6.1l0,0c-7.9-3.4-14.6-7-17-9.7l0,0c-1.6-2-6-4.8-10.7-7.5l0,0
	c-4.7-2.7-9.8-5.2-13-7.3l0,0c-3-1.9-7-4.8-8.6-8.7l0,0c-0.5-1.3-0.7-2.5-0.8-3.6l0,0c-0.1-0.8-0.2-1.5-0.2-2.3l0,0
	c0-0.7,0-1.4,0.1-2.1l0,0c0.2-1.6,0.6-3.3,1.3-4.9l0,0c1.8-3.8,4.4-7.6,8.1-10.1l0,0c3.3-2.2,7-3.2,10.8-3.5l0,0
	c0.9-0.1,1.9-0.1,2.9-0.1l0,0c5.5,0,11.2,1.3,16.2,3.6l0,0c0.4,0.2,0.7,0.3,1.1,0.5l0,0c4.3,2.3,6.5,3.5,9.1,3.5l0,0
	c1.6,0,3.4-0.4,6.2-1.6l0,0c7.8-3.3,12.4-2.9,24.2-4.5l0,0c4.9-0.5,12-7.4,18.3-15.1l0,0c6.5-7.7,12.4-16,16.9-19.5l0,0
	c8.8-6.7,31-12.9,40.2-17.6l0,0c8.5-4.2,19.5-5.4,28.3-5.4l0,0c1.5,0,2.9,0,4.2,0.1l0,0c0.1,0,0.2,0,0.4,0l0,0
	c8.4,0.1,28.3-10.6,31.5-12.8l0,0c4-2.6,26.2-12.4,36.4-13.3l0,0c9.1-0.7,17.9-4.3,40.1-10.3l0,0c4.4-1.2,8.6-1.7,12.6-1.7l0,0
	c17.1,0,30.8,8.7,36.2,10.8l0,0c2.3,0.9,5.1,3.4,8.5,6.9l0,0c3.4,3.5,7.2,8,10.9,12.9l0,0c7.3,9.8,13.9,21.1,14.9,29.5l0,0
	c0.7,7.3,5,16.3,9.1,23.4l0,0c3.7,6.3,7.2,11.1,7.9,12.1l0,0c1.5,1.2,11,8.9,17,24.3l0,0c1,2.5,1.4,5,1.4,7.5l0,0
	C1400.4,426.8,1387.7,438.6,1374,438.6L1374,438.6z M1225.9,499.3c0,0,1.7-3.9,4.2-8.2l0,0c2.6-4.2,5.8-8.9,9.7-10.5l0,0
	c2.4-0.9,4-3.5,4.8-6.2l0,0c0.8-2.7,0.9-5,0.9-5l0,0l0-0.3l0.1-0.3c0-0.1,1.8-4.3,5.6-8.6l0,0c3.7-4.3,9.6-8.7,17.8-8.7l0,0
	c0.4,0,0.8,0,1.1,0l0,0c7.3,0.4,16.1,1.6,24.7,1.6l0,0c10.3,0,20.2-1.8,27.1-8.7l0,0c8.8-8.9,19-11.8,29.5-11.8l0,0
	c6,0,12.2,1,18.3,2.3l0,0c1.4,0.3,2.7,0.4,4.1,0.4l0,0c5.9,0,11.8-2.6,16.2-6.7l0,0c4.4-4.1,7.2-9.7,7.2-15.3l0,0
	c0-2.1-0.4-4.2-1.2-6.3l0,0c-4.6-11.9-11.4-19-14.5-21.7l0,0c-1-0.9-1.6-1.3-1.6-1.3l0,0l-0.2-0.1l-0.1-0.2c0-0.1-16-21-17.7-37.2
	l0,0c-1-10.7-15-30.5-24.8-40.5l0,0c-3.2-3.4-6.1-5.7-7.4-6.1l0,0c-6.1-2.4-19-10.6-35.1-10.6l0,0c-3.8,0-7.7,0.5-11.8,1.5l0,0
	c-22.1,5.9-30.8,9.5-40.7,10.3l0,0c-8.8,0.6-31.8,10.7-34.9,12.8l0,0c-3.8,2.5-23,13.2-33.3,13.4l0,0c-0.2,0-0.4,0-0.6,0l0,0
	c-1.3-0.1-2.6-0.1-4.1-0.1l0,0c-8.5,0-19.1,1.2-26.8,5.1l0,0c-9.7,4.8-31.9,11.3-39.7,17.3l0,0c-3.8,2.8-9.9,11.2-16.4,19l0,0
	c-6.6,7.7-13.4,15.1-20.4,16.2l0,0c-12,1.6-16.1,1.2-23.3,4.2l0,0c-2.9,1.2-5.2,1.8-7.4,1.8l0,0c-3.7,0-6.4-1.7-10.6-3.9l0,0
	c-0.3-0.2-0.6-0.3-1-0.5l0,0c-4.5-2.1-9.8-3.3-14.9-3.3l0,0c-0.9,0-1.7,0-2.6,0.1l0,0c-3.3,0.3-6.6,1.2-9.3,3l0,0
	c-3,2-5.3,5.4-6.9,8.8l0,0c-0.6,1.2-0.9,2.5-1.1,3.9l0,0c-0.1,0.6-0.1,1.1-0.1,1.7l0,0c0,0.6,0,1.3,0.1,1.8l0,0
	c0.2,1.2,0.3,2,0.6,2.9l0,0c1,2.7,4.5,5.5,7.3,7.2l0,0c3.1,1.9,8.1,4.5,12.9,7.2l0,0c4.8,2.7,9.3,5.4,11.6,8.2l0,0
	c1.3,1.7,8.1,5.7,15.8,8.8l0,0c7.7,3.2,16.4,5.9,22,5.9l0,0c0.9,0,1.7-0.1,2.3-0.2l0,0c4.9-0.9,14.1-2.7,23.7-2.7l0,0
	c11.1,0,23,2.4,28.7,12.2l0,0c7.6,13.3,20.4,14.3,24.3,14.3l0,0c0.7,0,1.1,0,1.1,0l0,0l0.6-0.1l0.5,0.4c0,0,4.7,3.6,9.7,7.9l0,0
	c5,4.4,10.2,9.1,11.8,12.6l0,0c1,2.3,6.5,13.1,14,23.2l0,0c7.5,10.1,17.1,19.3,25.5,19.1l0,0c2,0,3.9-0.5,5.8-1.5l0,0
	c17.8-9.6,18.5-24.5,18.6-27.4l0,0c0-0.3,0-0.5,0-0.5l0,0l0-0.4L1225.9,499.3L1225.9,499.3z"/>
<path fill="#DDDDD0" d="M1054.2,468.7L1054.2,468.7l-2.7-1.6c0,0,1.6-2.6,3.2-6.2l0,0c1.6-3.6,3.1-8.1,3.1-11.4l0,0
	c0-1.4-0.3-2.5-0.7-3.4l0,0l2.7-1.6c0.9,1.5,1.2,3.2,1.2,5l0,0C1060.8,457.8,1054.2,468.5,1054.2,468.7L1054.2,468.7z"/>
<path fill="#DDDDD0" d="M1267,453.3l-3.2-0.2c0-0.2,0-0.4,0-0.6l0,0c0.1-4.3-3.8-10.3-8.5-15.1l0,0c-4.6-4.8-10.1-8.7-11.8-9.3l0,0
	c-5.2-1.8-17.2-8.7-21-14.1l0,0c-3.2-4.6-4.9-7.5-17.8-8.4l0,0c-11.8-0.8-19.9-7.4-25-14.3l0,0c-5.1-7-7.3-13.9-7.4-16.9l0,0
	c0-0.3,0-0.6,0.1-0.9l0,0c0.4-1.5,1.4-7,1.4-11.4l0,0c0.1-2.8-0.5-5.2-1-5.7l0,0c-2.5-3-4.4-10.1-4.5-14.9l0,0
	c0.1-1.7,0.1-3.3,1.6-4.5l0,0l0,0c0,0,0.1-0.1,0.1-0.2l0,0c0.1-0.2,0.2-0.5,0.3-0.8l0,0c0.2-0.7,0.2-1.8,0.2-2.9l0,0
	c0-2.9-0.5-6-0.5-6.1l0,0v0l3.1-0.5c0,0,0.5,3.3,0.5,6.6l0,0c0,1.2-0.1,2.4-0.3,3.5l0,0c-0.3,1.1-0.6,2.1-1.6,2.9l0,0c0,0,0,0,0,0
	l0,0c0,0-0.1,0.1-0.1,0.3l0,0c-0.1,0.3-0.2,0.9-0.2,1.6l0,0c-0.1,3.8,2.1,11.2,3.7,12.8l0,0c1.6,2,1.8,4.7,1.8,7.8l0,0
	c0,4.9-0.9,10.3-1.5,12.2l0,0c0,0,0,0,0,0.1l0,0c-0.1,1.5,2,8.6,6.8,15l0,0c4.8,6.4,12.1,12.3,22.7,13.1l0,0
	c13.3,0.6,17.1,4.9,20.2,9.8l0,0c2.6,4.1,15.1,11.5,19.4,12.8l0,0c2.9,1,8.1,4.9,13.1,10.1l0,0c4.9,5.1,9.3,11.3,9.4,17.3l0,0
	C1267,452.8,1267,453.1,1267,453.3L1267,453.3z"/>
<path fill="#DDDDD0" d="M1227.3,304c-0.1,0-2.6-1.9-5.2-4.7l0,0c-2.6-2.8-5.3-6.6-5.4-10.9l0,0h3.2c-0.1,4.3,5.1,9.6,7.8,11.8l0,0
	c0.9,0.8,1.5,1.2,1.5,1.2l0,0l0,0L1227.3,304L1227.3,304z"/>
<polygon fill="#DDDDD0" points="1283.1,471.2 1270.5,454.6 1273,452.6 1285.7,469.3 "/>
<polygon fill="#DDDDD0" points="1405,444.4 1383.6,436.1 1384.7,433.1 1406.1,441.4 "/>
<path fill="#DDDDD0" d="M1411.4,434.1c-5.1-0.1-8.4-4.5-10.7-8.5l0,0c-2.3-4-3.5-7.9-3.6-8l0,0v0l3-1c0,0,0.3,0.9,0.8,2.3l0,0
	c0.6,1.4,1.4,3.2,2.4,5.1l0,0c2.1,3.7,5.1,7,8,6.9l0,0c0.7,0,1.4-0.1,2.2-0.5l0,0l1.3,2.9C1413.7,433.8,1412.6,434.1,1411.4,434.1
	L1411.4,434.1z"/>
<polygon fill="#DDDDD0" points="1326.1,295.6 1323.4,293.9 1337.7,270.9 1340.4,272.6 "/>
</svg>
